<?xml version="1.0" encoding="utf-8"?>
<!-- Generator: Adobe Illustrator 22.1.0, SVG Export Plug-In . SVG Version: 6.00 Build 0)  -->
<svg version="1.1" id="Layer_1" xmlns="http://www.w3.org/2000/svg" xmlns:xlink="http://www.w3.org/1999/xlink" x="0px" y="0px"
	 viewBox="0 0 36.8 40.8" style="enable-background:new 0 0 36.8 40.8;" xml:space="preserve">
<style type="text/css">
	.st0{fill:#83CD29;}
	.st1{fill:none;stroke:#83CD29;stroke-width:2.5;stroke-miterlimit:10;}
</style>
<path class="st0" d="M23,28.8c-6.4,0-7.8-3-7.8-5.4c0-0.2,0.2-0.4,0.4-0.4h1.9c0.2,0,0.4,0.2,0.4,0.4c0.3,1.9,1.1,2.9,5,2.9
	c3.1,0,4.4-0.7,4.4-2.3c0-0.9-0.4-1.7-5.2-2.1c-4-0.4-6.5-1.3-6.5-4.5c0-3,2.5-4.7,6.7-4.7c4.7,0,7,1.6,7.3,5.1c0,0.1,0,0.2-0.1,0.3
	c-0.1,0.1-0.2,0.1-0.3,0.1h-1.9c-0.2,0-0.4-0.1-0.4-0.3c-0.5-2-1.6-2.7-4.6-2.7c-3.4,0-3.8,1.2-3.8,2.1c0,1.1,0.5,1.4,5,2
	c4.5,0.6,6.7,1.4,6.7,4.6C30.3,27,27.7,28.8,23,28.8"/>
<path class="st1" d="M13,36.1c0,0,3.4,2.3,4.6,3c1,0.5,2.4-0.3,2.4-0.3s13.3-7.4,14.2-8.4c0.5-0.5,0.7-1.7,0.7-1.7s0-15.7,0-16.8
	c0-1.1-1.1-1.7-1.1-1.7S21.3,2.8,19.8,2c-1.3-0.8-2.4,0-2.4,0S3.9,9.5,2.8,10.2C1.9,10.9,2,12.1,2,12.1S1.9,27.8,1.9,28.9
	c0,1.3,1.4,1.9,1.4,1.9s4.2,2.7,6,2.7c1.4,0,1.8-0.3,2.3-0.6c0.9-0.7,0.9-2,0.9-2l0.1-18"/>
</svg>
