<?xml version="1.0" encoding="utf-8"?>
<!-- Generator: Adobe Illustrator 22.1.0, SVG Export Plug-In . SVG Version: 6.00 Build 0)  -->
<svg version="1.1" id="NodeJS_Logo" xmlns="http://www.w3.org/2000/svg" xmlns:xlink="http://www.w3.org/1999/xlink" x="0px"
	 y="0px" viewBox="0 0 452 280" style="enable-background:new 0 0 452 280;" xml:space="preserve">
<style type="text/css">
	.st0{fill:#679E63;}
	.st1{fill:none;stroke:#679E63;stroke-width:8;stroke-miterlimit:10;}
	.st2{fill:#333333;}
	.st3{fill:url(#XMLID_2_);}
	.st4{clip-path:url(#SVGID_2_);}
	.st5{fill:none;}
	.st6{fill:url(#SVGID_3_);}
	.st7{clip-path:url(#SVGID_5_);}
	.st8{fill:url(#SVGID_6_);}
	.st9{fill:url(#SVGID_7_);}
	.st10{fill:url(#SVGID_8_);}
	.st11{fill:url(#SVGID_9_);}
	.st12{fill:url(#SVGID_10_);}
</style>
<g id="JS">
	<path id="S" class="st0" d="M237.3,243.2c-17.5,0-21.1-8-21.1-14.8c0-0.6,0.5-1.2,1.2-1.2h5.2c0.6,0,1.1,0.4,1.1,1
		c0.8,5.3,3.1,7.9,13.7,7.9c8.4,0,12-1.9,12-6.4c0-2.6-1-4.5-14.1-5.8c-10.9-1.1-17.7-3.5-17.7-12.2c0-8.1,6.8-12.9,18.2-12.9
		c12.8,0,19.1,4.4,19.9,14c0,0.3-0.1,0.6-0.3,0.9c-0.2,0.2-0.5,0.4-0.8,0.4h-5.2c-0.5,0-1-0.4-1.1-0.9c-1.2-5.5-4.3-7.3-12.5-7.3
		c-9.2,0-10.3,3.2-10.3,5.6c0,2.9,1.3,3.8,13.7,5.4c12.3,1.6,18.1,3.9,18.1,12.5C257.2,238.2,250,243.2,237.3,243.2z"/>
	<path id="Js" class="st1" d="M208.7,200.2l-0.2,48.3c0,0,0.6,7.8-8,8c-0.3,0-1.1-0.1-1.4-0.2l-16.6-7.8c0,0-2-1-2-5s0-45,0-45
		s0-4,4-6s37-22,37-22s4-2,7,0s37,22,37,22s4,2,4,5s0,46,0,46s0,3-4,5s-37,22-37,22s-3,2-6,0s-12-7-12-7"/>
</g>
<path id="D" class="st2" d="M305,4.3c-0.8-0.4-1.8-0.4-2.5,0c-0.8,0.5-1.3,1.3-1.3,2.2v65c0,0.6-0.3,1.2-0.9,1.6
	c-0.6,0.3-1.2,0.3-1.8,0L287.9,67c-1.6-0.9-3.5-0.9-5.1,0l-42.4,24.5c-1.6,0.9-2.6,2.6-2.6,4.4v48.9c0,1.8,1,3.5,2.6,4.4l42.4,24.5
	c1.6,0.9,3.5,0.9,5.1,0l42.4-24.5c1.6-0.9,2.6-2.6,2.6-4.4V22.9c0-1.9-1-3.6-2.6-4.5L305,4.3z M301.1,128.7c0,0.5-0.2,0.9-0.6,1.1
	l-14.5,8.4c-0.4,0.2-0.9,0.2-1.3,0l-14.5-8.4c-0.4-0.2-0.6-0.7-0.6-1.1v-16.8c0-0.5,0.2-0.9,0.6-1.1l14.5-8.4c0.4-0.2,0.9-0.2,1.3,0
	l14.5,8.4c0.4,0.2,0.6,0.7,0.6,1.1V128.7z"/>
<g id="E">
	<path class="st2" d="M446.1,111.5c1.6-0.9,2.5-2.6,2.5-4.4V95.2c0-1.8-1-3.5-2.5-4.4L404,66.4c-1.6-0.9-3.5-0.9-5.1,0l-42.4,24.5
		c-1.6,0.9-2.6,2.6-2.6,4.4v48.9c0,1.8,1,3.5,2.6,4.4l42.1,24c1.6,0.9,3.5,0.9,5,0l25.5-14.2c0.8-0.4,1.3-1.3,1.3-2.2
		s-0.5-1.8-1.3-2.2l-42.6-24.5c-0.8-0.5-1.3-1.3-1.3-2.2V112c0-0.9,0.5-1.8,1.3-2.2l13.3-7.6c0.8-0.5,1.8-0.5,2.6,0l13.3,7.6
		c0.8,0.5,1.3,1.3,1.3,2.2v12c0,0.9,0.5,1.8,1.3,2.2c0.8,0.5,1.8,0.5,2.6,0L446.1,111.5z"/>
	<path class="st0" d="M400.8,109.2c0.3-0.2,0.7-0.2,1,0l8.1,4.7c0.3,0.2,0.5,0.5,0.5,0.9v9.4c0,0.4-0.2,0.7-0.5,0.9l-8.1,4.7
		c-0.3,0.2-0.7,0.2-1,0l-8.1-4.7c-0.3-0.2-0.5-0.5-0.5-0.9v-9.4c0-0.4,0.2-0.7,0.5-0.9L400.8,109.2z"/>
</g>
<g id="O">
	<g>
			<linearGradient id="XMLID_2_" gradientUnits="userSpaceOnUse" x1="186.6804" y1="197.2959" x2="148.6154" y2="119.6436" gradientTransform="matrix(1 0 0 -1 0 282)">
			<stop  offset="0" style="stop-color:#3F873F"/>
			<stop  offset="0.3296" style="stop-color:#3F8B3D"/>
			<stop  offset="0.6367" style="stop-color:#3E9638"/>
			<stop  offset="0.9341" style="stop-color:#3DA92E"/>
			<stop  offset="1" style="stop-color:#3DAE2B"/>
		</linearGradient>
		<path id="XMLID_143_" class="st3" d="M172.1,66.6c-1.6-0.9-3.5-0.9-5.1,0l-42.1,24.3c-1.6,0.9-2.5,2.6-2.5,4.4V144
			c0,1.8,1,3.5,2.5,4.4l42.1,24.3c1.6,0.9,3.5,0.9,5.1,0l42.1-24.3c1.6-0.9,2.5-2.6,2.5-4.4V95.3c0-1.8-1-3.5-2.5-4.4L172.1,66.6z"
			/>
	</g>
	<g>
		<defs>
			<path id="SVGID_1_" d="M172.1,66.6c-1.6-0.9-3.5-0.9-5.1,0l-42.1,24.3c-1.6,0.9-2.5,2.6-2.5,4.4V144c0,1.8,1,3.5,2.5,4.4
				l42.1,24.3c1.6,0.9,3.5,0.9,5.1,0l42.1-24.3c1.6-0.9,2.5-2.6,2.5-4.4V95.3c0-1.8-1-3.5-2.5-4.4L172.1,66.6z"/>
		</defs>
		<clipPath id="SVGID_2_">
			<use xlink:href="#SVGID_1_"  style="overflow:visible;"/>
		</clipPath>
		<g class="st4">
			<path class="st5" d="M166.9,66.6l-42.2,24.3c-1.6,0.9-2.7,2.6-2.7,4.4V144c0,1.2,0.5,2.3,1.3,3.2L170.7,66
				C169.5,65.8,168.1,65.9,166.9,66.6z"/>
			<path class="st5" d="M171,173.2c0.4-0.1,0.8-0.3,1.2-0.5l42.2-24.3c1.6-0.9,2.6-2.6,2.6-4.4V95.3c0-1.3-0.6-2.6-1.5-3.5
				L171,173.2z"/>
			
				<linearGradient id="SVGID_3_" gradientUnits="userSpaceOnUse" x1="163.1544" y1="156.651" x2="269.9616" y2="235.5659" gradientTransform="matrix(1 0 0 -1 0 282)">
				<stop  offset="0.1376" style="stop-color:#3F873F"/>
				<stop  offset="0.4016" style="stop-color:#52A044"/>
				<stop  offset="0.7129" style="stop-color:#64B749"/>
				<stop  offset="0.9081" style="stop-color:#6ABF4B"/>
			</linearGradient>
			<path class="st6" d="M214.3,90.9L172,66.6c-0.4-0.2-0.9-0.4-1.3-0.5l-47.4,81.2c0.4,0.5,0.9,0.9,1.4,1.2l42.3,24.3
				c1.2,0.7,2.6,0.9,3.9,0.5l44.5-81.4C215.1,91.5,214.7,91.2,214.3,90.9z"/>
		</g>
	</g>
	<g>
		<defs>
			<path id="SVGID_4_" d="M172.1,66.6c-1.6-0.9-3.5-0.9-5.1,0l-42.1,24.3c-1.6,0.9-2.5,2.6-2.5,4.4V144c0,1.8,1,3.5,2.5,4.4
				l42.1,24.3c1.6,0.9,3.5,0.9,5.1,0l42.1-24.3c1.6-0.9,2.5-2.6,2.5-4.4V95.3c0-1.8-1-3.5-2.5-4.4L172.1,66.6z"/>
		</defs>
		<clipPath id="SVGID_5_">
			<use xlink:href="#SVGID_4_"  style="overflow:visible;"/>
		</clipPath>
		<g class="st7">
			<path class="st5" d="M217,144V95.3c0-1.8-1.1-3.5-2.7-4.4L172,66.6c-0.5-0.3-1-0.5-1.6-0.6l46.3,79.1
				C216.9,144.8,217,144.4,217,144z"/>
			<path class="st5" d="M124.7,90.9c-1.6,0.9-2.7,2.6-2.7,4.4V144c0,1.8,1.2,3.5,2.7,4.4l42.3,24.3c1,0.6,2.1,0.8,3.3,0.6L125,90.8
				L124.7,90.9z"/>
			
				<linearGradient id="SVGID_6_" gradientUnits="userSpaceOnUse" x1="120.8623" y1="224.15" x2="218.2793" y2="224.15" gradientTransform="matrix(1 0 0 -1 0 282)">
				<stop  offset="9.191646e-02" style="stop-color:#6ABF4B"/>
				<stop  offset="0.2871" style="stop-color:#64B749"/>
				<stop  offset="0.5984" style="stop-color:#52A044"/>
				<stop  offset="0.8624" style="stop-color:#3F873F"/>
			</linearGradient>
			<polygon class="st8" points="165.6,57.7 165,58 165.8,58 			"/>
			
				<linearGradient id="SVGID_7_" gradientUnits="userSpaceOnUse" x1="120.8623" y1="162.3455" x2="218.2793" y2="162.3455" gradientTransform="matrix(1 0 0 -1 0 282)">
				<stop  offset="9.191646e-02" style="stop-color:#6ABF4B"/>
				<stop  offset="0.2871" style="stop-color:#64B749"/>
				<stop  offset="0.5984" style="stop-color:#52A044"/>
				<stop  offset="0.8624" style="stop-color:#3F873F"/>
			</linearGradient>
			<path class="st9" d="M214.4,148.4c1.2-0.7,2.1-1.9,2.5-3.2L170.5,66c-1.2-0.2-2.5-0.1-3.6,0.6l-42,24.2l45.3,82.6
				c0.6-0.1,1.3-0.3,1.9-0.6L214.4,148.4z"/>
			
				<linearGradient id="SVGID_8_" gradientUnits="userSpaceOnUse" x1="120.8623" y1="134.55" x2="218.2793" y2="134.55" gradientTransform="matrix(1 0 0 -1 0 282)">
				<stop  offset="9.191646e-02" style="stop-color:#6ABF4B"/>
				<stop  offset="0.2871" style="stop-color:#64B749"/>
				<stop  offset="0.5984" style="stop-color:#52A044"/>
				<stop  offset="0.8624" style="stop-color:#3F873F"/>
			</linearGradient>
			<polygon class="st10" points="218.3,147.6 218,147.1 218,147.8 			"/>
			
				<linearGradient id="SVGID_9_" gradientUnits="userSpaceOnUse" x1="120.8623" y1="122.05" x2="218.2793" y2="122.05" gradientTransform="matrix(1 0 0 -1 0 282)">
				<stop  offset="9.191646e-02" style="stop-color:#6ABF4B"/>
				<stop  offset="0.2871" style="stop-color:#64B749"/>
				<stop  offset="0.5984" style="stop-color:#52A044"/>
				<stop  offset="0.8624" style="stop-color:#3F873F"/>
			</linearGradient>
			<path class="st11" d="M214.4,148.4l-42.2,24.3c-0.6,0.3-1.2,0.5-1.9,0.6l0.8,1.5l46.8-27.1v-0.6l-1.2-2
				C216.5,146.5,215.6,147.7,214.4,148.4z"/>
			
				<linearGradient id="SVGID_10_" gradientUnits="userSpaceOnUse" x1="232.3964" y1="199.6246" x2="172.3158" y2="77.0602" gradientTransform="matrix(1 0 0 -1 0 282)">
				<stop  offset="0" style="stop-color:#3F873F"/>
				<stop  offset="0.3296" style="stop-color:#3F8B3D"/>
				<stop  offset="0.6367" style="stop-color:#3E9638"/>
				<stop  offset="0.9341" style="stop-color:#3DA92E"/>
				<stop  offset="1" style="stop-color:#3DAE2B"/>
			</linearGradient>
			<path class="st12" d="M214.4,148.4l-42.2,24.3c-0.6,0.3-1.2,0.5-1.9,0.6l0.8,1.5l46.8-27.1v-0.6l-1.2-2
				C216.5,146.5,215.6,147.7,214.4,148.4z"/>
		</g>
	</g>
</g>
<path id="N" class="st2" d="M101.2,94.6c0-1.8-1-3.5-2.6-4.4L56.3,65.7c-0.7-0.4-1.5-0.6-2.3-0.7c-0.1,0-0.4,0-0.4,0
	c-0.8,0-1.6,0.3-2.3,0.7L8.9,90.1c-1.6,0.9-2.6,2.6-2.6,4.4l0.1,65.6c0,0.9,0.5,1.8,1.3,2.2c0.8,0.5,1.8,0.5,2.5,0L35.4,148
	c1.6-0.9,2.6-2.6,2.6-4.4v-30.7c0-1.8,1-3.5,2.6-4.4l10.7-6.2c0.8-0.5,1.7-0.7,2.6-0.7c0.9,0,1.8,0.2,2.5,0.7l10.7,6.2
	c1.6,0.9,2.6,2.6,2.6,4.4v30.7c0,1.8,1,3.5,2.6,4.4l25.2,14.4c0.8,0.5,1.8,0.5,2.6,0c0.8-0.4,1.3-1.3,1.3-2.2L101.2,94.6z"/>
</svg>
