<?xml version="1.0" encoding="utf-8"?>
<!-- Generator: Adobe Illustrator 22.1.0, SVG Export Plug-In . SVG Version: 6.00 Build 0)  -->
<svg version="1.1" id="Layer_1" xmlns="http://www.w3.org/2000/svg" xmlns:xlink="http://www.w3.org/1999/xlink" x="0px" y="0px"
	 viewBox="0 0 700 786.1" style="enable-background:new 0 0 700 786.1;" xml:space="preserve">
<style type="text/css">
	.st0{fill:#1C78C0;}
	.st1{fill:#8ED6FB;}
</style>
<path class="st0" d="M336.3,605.5L148.7,502.3V298l187.6,108.3V605.5z M363.1,605.5l187.6-103.1V298L363.1,406.3V605.5z
	 M161.4,274.4l188.3-103.5L538,274.4L349.7,383.1L161.4,274.4z"/>
<path class="st1" d="M668.2,597.9L363.1,770.5V636.1l190.1-104.6L668.2,597.9L668.2,597.9z M689.1,579V218.1l-111.6,64.5v232
	L689.1,579L689.1,579z M31.2,597.9l305.1,172.6V636.1L146.1,531.5L31.2,597.9L31.2,597.9z M10.3,579V218.1l111.6,64.5v232L10.3,579z
	 M23.4,194.7l312.9-177v129.9L135.8,257.9l-1.6,0.9L23.4,194.7L23.4,194.7z M676,194.7l-312.9-177v129.9l200.5,110.2l1.6,0.9
	L676,194.7L676,194.7z"/>
<title>logo-on-white-bg</title>
</svg>
