<?xml version="1.0" encoding="utf-8"?>
<!-- Generator: Adobe Illustrator 22.1.0, SVG Export Plug-In . SVG Version: 6.00 Build 0)  -->
<svg version="1.1" id="Layer_1" xmlns="http://www.w3.org/2000/svg" xmlns:xlink="http://www.w3.org/1999/xlink" x="0px" y="0px"
	 viewBox="0 0 503 505" style="enable-background:new 0 0 503 505;" xml:space="preserve">
<style type="text/css">
	.st0{fill:#112B49;}
	.st1{fill:none;stroke:#112B49;stroke-width:24;stroke-miterlimit:10;}
</style>
<g>
	<path class="st0" d="M322.9,368.3H385L285.9,111h-68.7l-99.1,257.3h62.1l16.2-43.6h93.7l-17-48.2h-61.7l40.1-110.7L322.9,368.3z"/>
</g>
<path class="st0" d="M452,95c0,18.2-14.8,33-33,33s-33-14.8-33-33c0-10.4,4.8-19.7,12.4-25.8c5.6-4.5,12.8-7.2,20.6-7.2
	C437.2,62,452,76.8,452,95z"/>
<path class="st1" d="M473.8,179.6c26.8,76.8,12.1,161.6-38.9,223.9c-80.9,98.9-230.1,112.6-330.5,30.5s-116.3-231.1-35.4-330
	S299.2-8.7,399.5,73.5"/>
</svg>
