<?xml version="1.0" encoding="utf-8"?>
<!-- Generator: Adobe Illustrator 22.1.0, SVG Export Plug-In . SVG Version: 6.00 Build 0)  -->
<svg version="1.1" id="babel_logo" xmlns="http://www.w3.org/2000/svg" xmlns:xlink="http://www.w3.org/1999/xlink" x="0px" y="0px"
	 viewBox="0 0 2500 977" style="enable-background:new 0 0 2500 977;" xml:space="preserve">
<style type="text/css">
	.st0{fill:#F9DC3E;}
</style>
<path d="M1714.6,86.4l-0.6-5.4l-8.7,0.7l0.6,5.4C1705.9,87.1,1714.6,86.4,1714.6,86.4z M1772.9,226.7l0.2,3l6.1-0.6
	c-0.2-1.8,0.6-4.8,1.8-8.5l-0.6-5.4C1777.9,215.5,1775.3,219.4,1772.9,226.7L1772.9,226.7z M1545.2,403.4
	c-0.4-5-15.9-24.4-46.5-58.5c-0.6-6.3,10-15.7,31.6-28.1l61.7-53.7c13.8-17.5,22-46,24.4-85.5l-0.7-9c-2.4-27.3-22.2-49.3-59.6-66.1
	c-22.2-15-62-23.3-119.6-24.7c-47.6,4.1-109.9,21-186.5,51.1c-21,15.1-45,30.3-72,45.4l0.4,4.6c1.7-0.2,4.2-1.1,7.2-3.1
	c3.1-0.4,5,1.1,5.2,4.1l4.6-2.4l2.2-0.2l0.2,2c0.2,2.4-16.4,15.5-50,39l2.6,4.8l-2.2,0.2l-5.5-2c0.2,1.7-2.2,2.8-6.8,3.1l0.2,2
	l5.4,6.6c-1.7,0.2-4.2-0.6-7.8-1.8c-7.8,0.7-15.3,4.8-22.9,12.6l3.1-13.7c11.3-48.6,19-91.6,23.1-128.9l-0.6-2.4
	c-7.8-5-15.3-12-22.3-20.9c0.2-5.7,0.2-9,0-9.8l-0.6-2l-2.2,0.6c-24.4,36.6-71.3,99-140.9,187.2c-53,62.8-80.3,97.7-82,104.7
	c-21.6,22.3-31.9,35.8-30.8,40.4c-5.7,3.7-8.1,7.4-7.2,11.4c-1.7,0.4-2.8-0.2-3.1-1.8c-9.2,15-22.9,24.6-41.2,28.8l-19.2,4.4
	c-2.6,0.6-3.9,2.4-3.7,5.5l0.6,2.4l7.2-1.7l0.6,2l-16.3,6.3l-28.8,6.6L731,464c-2.2,2.2,12-0.2,6.5,1.1l-18.8,4.4
	c-11.5,2.6-17.7,1.7-18.8-3l-2.2,0.6c0.4,2,0.6,3.5,0.2,4.8l-1.1-4.6l-15.1,3.5c-1.1-7-21.6-32.5-61.3-76.4
	c-0.7-8.5,13.3-20.9,41.9-36.9l80.9-71.1c18.1-23.3,28.8-60.6,32.3-111.9l-1.1-12c-3.1-36.2-29.4-65.4-78.7-87.9
	c-29.2-19.8-81.6-30.3-157.3-31.9c-62.8,5.4-144.8,27.7-245.6,66.7c-27.7,20.1-59.3,40.1-94.7,59.8l0.6,6.3c2.4-0.2,5.5-1.5,9.4-3.7
	c4.1-0.4,6.3,1.5,6.7,5.2l6.3-3.5l3.1-0.2l0.2,3c0.2,3-21.8,20.1-66.3,51.5l3.5,5.5l-3.1,0.2l-6.8-2.4c0.2,1.8-3,3.1-9.4,3.7
	l0.4,3.3l7.4,8.1c-2.4,0.2-5.7-0.6-10-2c-14.4,1.3-28.4,11.6-42.3,31.2l3.5,5.5c12-11.1,19-16.6,21-16.8l0.7,9
	c-2,0.2-5.2,1.5-9.4,3.7l7.6,11.5c14.3-15.5,30.5-29,48.2-40.4c8.7,2.2,13.3,5,13.5,7.9l6.6-0.6c47.6-35.3,94.7-60.7,141.4-76.4
	l0.6,6.3c-8.7,12.9-14.6,19.6-17.7,19.9c0.4,4.4,1.8,8.3,4.6,11.6c0.7,7.9-20.5,61.5-63.5,160.4C156.9,607.1,75,777.3,8.3,887.4
	c0.2,2.2,1.5,5.2,3.9,8.9c16.4-3.9,26.8-7.9,31.2-11.8l3.5-0.4l0.6,6.3l6.1-0.6l6.3-3.5c0.2,1.8,2.2,2.8,6.5,2.4l0.6,6.3
	c0.6,6.1-3,15.3-10.3,28.1c-6.6,7.6-13.8,23.4-21.4,47.6l0.2,3l6.1-0.6c26.6-29.7,46.7-58.9,60.6-87.3c77.5-22.7,136.6-45,177.6-67
	c41.2-3.5,72.6-14.4,94-32.3l-0.4-3.3l-15.5,4.6l-3.5,0.4l-0.4-3.3c30.3-4.6,51.1-11.3,62.8-20.5c58.9-45.4,103.4-77.5,133.5-96.6
	c61.9-45.4,102.1-89.7,120.4-132.8c3.5-0.8,6.9-1.6,10.3-2.4c8.7-0.4,13.5-0.6,14.8-0.9c-0.4-1.7,0.4-2.6,2-3
	c13.8-1.5,7.2,0.9,16.1-1.1l23.3-5.4c-1.5,0.4-2,1.1-1.7,2.6l3.5-2.2c-0.7,0-1.3-0.2-1.8-0.4l3.9-0.9l-1.8,1.1
	c2.6,0.4,5.4,0.2,8.5-0.6l1.7,6.8L643.3,696.8l-23.5,29.4l-11.4,38.4l2.2-0.6l11.4-4.8l-3.7,15l1.1,4.4l3.1,3.9
	c-1.5,0.4-2,1.3-1.7,3l0.6,2.4l4.8-1.1c7-6.1,10-11.6,8.9-16.6c7.6,1.3,12.6,1.8,15.1,1.1l0.6,2.4c-4.6,1.1-7,4.8-7.4,11.1l0.6,2.4
	l2.6-0.6c38.4-41.9,132.6-185.4,208.1-282.7c-2.4-10.5,36.9-25.1,118.2-43.9l2.6-0.6c3,12.7-3.3,43.6-18.8,92.5
	c-10,29.5-14.8,45.8-14,48.4c-12.9,39.3-19,60.6-18.3,63.9l-28.8,94.3c-18.6,48.4-32.9,99.2-42.8,152.7c1.7-0.4,4.2-0.2,7.9,0.7
	l4.1-3.5c0.4,1.7,1.5,2.2,3.1,1.8l-1.7-6.8l12.6-0.4c3.7-0.9,6.8-5.5,9.4-14c-0.6-12.7,2-19.6,7.8-21c7.8-30.3,12.6-45.4,14.2-46
	c7.2-30.1,12.6-47.3,16.1-51.5c10.9-39.1,18.8-59.3,24-60.6l1.1,4.8l-7.9,20.5c-13.8,61.5-27.9,110-42.1,145.7l4.1,17.7l2.6-0.6
	c34.3-73.9,83.8-220.1,148.3-438.7c1.9-19.2,11.1-34.2,27.5-44.7l-3.7-3.9l-0.6-2c7.4-1.7,12.6-4.6,15.5-8.7
	c-0.4-1.7-6.8-4.1-19.4-7.4l32.1-137.7c7-6.3,11.1-9.6,12.4-9.6l0.6,7c-1.7,0.2-4.2,1.1-7.2,3.1l6.1,8.7c11.1-12,23.1-22.3,36.2-31
	c6.6,1.8,10,4.1,10.3,6.3l4.8-0.4c36.6-26.8,72.4-46,107.6-57.6l0.4,4.6c-6.5,9.8-10.9,14.8-13.3,15c0.4,3.3,1.3,6.3,3,8.9
	c0.6,6.1-15.3,46.7-47.8,122c-74.2,174.5-136.5,303.5-187,387.4c0.2,1.7,1.3,3.9,3.3,6.8c12.4-3,20.3-6.1,23.4-9l2.2-0.2l0.4,4.6
	l5.2-0.4l4.6-2.4c0.2,1.3,1.8,1.9,5,1.7l0.4,5c0.4,4.4-2.2,11.4-7.9,21c-5.4,5.7-10.9,17.7-16.8,36l0.2,2.4l4.8-0.4
	c20.1-22.5,35.4-44.7,46-66.5c58.9-17.4,103.8-34.2,134.8-50.8c31.6-2.8,55.4-10.9,71.6-24.6l-0.2-2.4l-12,3.5l-2.6,0.2l-0.2-2.4
	c22.9-3.3,39-8.5,47.6-15.3c44.7-34.3,78.5-58.9,101.4-73.3C1516.1,501.1,1549.3,451.3,1545.2,403.4L1545.2,403.4z M1533.1,406.6
	l1.7,18.6c-2.2,4.6-4.6,7-6.8,7.2l-2.8-31.8C1530.3,402.5,1532.9,404.4,1533.1,406.6L1533.1,406.6z M135,256.3l-3.1,0.2l-0.6-5.7
	l12.7-1.1l0.2,3C142.2,252.8,139,253.9,135,256.3L135,256.3z M72.7,878.7c-7.4-3.3-14-4.6-19.8-4.1l-0.7-9c-0.4-3.5,1.7-5.9,6.1-6.8
	c4.1-0.4,6.5,2.6,6.8,8.5c10.7-13.1,16.6-19.8,17.7-19.9l6.8,2.8C87.5,868.5,81.8,878,72.7,878.7z M737.6,183.2
	c-3.1,0.4-9.4-9.4-18.5-28.8l-0.6-5.7c5.9-0.6,12,9,18.5,28.8L737.6,183.2z M728.8,114.3l-2.6,6.1l-90.3-37.7
	C696.1,84.8,727.1,95.3,728.8,114.3z M347.5,441.7l-12.7,1.1l-0.6-5.7l12.7-1.1L347.5,441.7z M337.1,245l3.1-0.2l0.7,9
	c-3,0.2-6.8,4.6-11.6,13.1l-0.6-6.3C334.6,253.9,337.5,248.7,337.1,245L337.1,245z M310.4,308.2l1.1,12l-3.1,0.2l-1.1-12
	L310.4,308.2z M296.3,330.7l6.1-0.6c-0.6,10-3.3,15.3-8.3,15.7L291,346C294.9,339.4,296.7,334.2,296.3,330.7z M285.8,362.1l3.5-0.4
	l0.2,3l-5.7,9.6l-6.1,0.6l-0.2-3C283.6,371.3,286.4,368.2,285.8,362.1L285.8,362.1z M275.5,390.3l-1.8,15.1l-3.1,0.2l-1.3-15
	L275.5,390.3z M171.9,684.8c-4.1,20.7-8.5,31.2-13.1,31.6l-0.2-3C157.5,703.3,161.9,693.7,171.9,684.8L171.9,684.8z M152.9,726
	l0.2,3c0.4,4.1-1.5,6.5-5.5,6.6l-0.2-3C147,729.1,148.8,726.9,152.9,726z M147.3,811.5l9.6-0.9l0.4,3.3c-2.4,0.2-5.5,1.5-9.4,3.7
	l-6.1,0.6C141.4,815,143.5,812.6,147.3,811.5L147.3,811.5L147.3,811.5z M420.6,727.1c-53.9,26.6-85.7,44.7-95.1,54.1
	c-58.3,20.3-87.3,32.9-86.8,37.9c-51.9,20.5-86,35.6-102.5,45.1c-3.9,0.4-9.4-1.1-16.8-4.4c-0.9-10.5,3.9-19,14-25.8
	c9-0.7,17.7,0.6,26,4.1c9.6-5,26.4-10.5,50.2-16.4l-0.6-6.3l-19.2,1.7c2.4-3.3,20.9-12,55.6-26l9.6-0.9l0.2,3
	c-16.4,1.5-25.5,6.3-27.5,15c0.4,3.9,2.6,5.5,6.7,5.2c12.4-7.8,18.5-12.4,18.3-13.7c23.5-4.4,88.3-38.4,194.4-101.7l0.6,5.7
	C447.9,706.1,438.9,713.8,420.6,727.1L420.6,727.1z M257.8,780.6c15.5-1.3,28.8-7.6,39.9-18.5c4.4-0.4,6.8,1.3,7,5.2
	c-7.6,0.7-22.2,7-43.4,19.2l-3.1,0.2L257.8,780.6L257.8,780.6z M520.5,578.8l-81.4,64.4c-60.6,39.7-93.1,59.6-97.7,60
	c-96.4,53-156.4,80.5-179.7,82.5l-3.5,0.4c3-10.9,45.8-98.6,128.9-263.7c36.6-3.1,94.2-20.1,172.6-51.1l19.2-1.7
	c39.7-3.5,69.4,4.2,89,22.7l1.1,12C554.3,546.9,538,571.6,520.5,578.8L520.5,578.8z M361.3,489.3l13.1-1.1l0.2,3l-13.1,1.1
	L361.3,489.3z M545.4,458.1l9.6-0.9c8.9,4.2,13.5,7.9,13.8,11.3l0.2,3C560.6,472.1,552.6,467.7,545.4,458.1z M571.5,309.8
	c-8.5,10.2-31.8,27.5-69.8,51.9c-12.6,1.1-59.3,19.2-140.1,54.7c-4-1.8-8.5-2.6-12.9-2.2l-0.6-5.7c-0.9-11.6,4.2-26.2,15.7-43.9
	c6.3-33.2,13.1-52.3,20.7-56.9L451.8,156c-0.7-9.4,13.7-16.6,43.2-21.6l9.6-0.9l0.7,8.7c29-4.4,47.1-7,54.1-7.6
	c53.5-4.6,81.4,6.3,83.6,32.3l6.1-0.6l-1.3-15.3l6.6-0.6c15.7,8.7,24.2,19.2,25.3,31.6c0.7,8.5-3.9,19-13.7,31.6
	c-4.1,0.4-6.5-2.6-6.8-8.5l-6.6,0.6l-1.5,18.5c-27.1,40.6-46.9,61.5-59.1,62.6C581.1,302.1,574.2,309.6,571.5,309.8z M612.8,416
	c-5.5-3.7-10-5.4-13.3-5.2l-0.7-9l6.1-0.6l13.5,7.9C618.9,413.4,617.1,415.6,612.8,416L612.8,416z M655.6,466.8
	c5.9,2.4,9.4,5,10.2,7.4l-3,0.7l0.2,0.2c-0.6,0-1.3,0.2-1.9,0.4l-4.4,3.5L655.6,466.8z M659.7,492.2l-0.6-2.4l7.8-1.8l0.6,2.4
	L659.7,492.2z M678.4,513.1c7.9-1.3,11.8-1.8,26.6-5.2l0.6,2.4l-28.1,6.5C677.8,515.5,678.2,514.2,678.4,513.1z M705.7,524.7
	c-11.8,1.1-9.2-0.4-28.1,3.9l-0.6-2.4l23.5-7.6l11.3-2.6l1.1,4.4C707.9,521.6,711.6,521.6,705.7,524.7z M730.6,518.8
	c-2.8,0.7-5-0.6-6.3-3.7l7.2-1.7c3.1-0.7,5.2,0.6,5.9,3.7L730.6,518.8L730.6,518.8z M798.2,446.1l-0.6-2.4l11.6-2.8l1.1,4.4
	L798.2,446.1z M870.4,888.8c0.7-3.3,0.9-5.7,0.6-7.4l2.6-0.6c3.1-0.7,5,0.4,5.7,3.3l0.6,2.4L870.4,888.8L870.4,888.8z M921,465.1
	l-5.2-0.9c-8.3,3.3-15.3,5.7-21,7l-4.8,1.1c-2.8,0.7-5-0.4-6.1-3.3l33.8-7.8l11.1-5.2l3.7,4.2C927.1,461.4,923.2,463.1,921,465.1
	L921,465.1z M947,456.8l-0.6-2.4c1.7-0.4,3.9-1.7,6.3-4.1l24-5.5l0.6,2.4C964.6,450.3,954.4,453.5,947,456.8L947,456.8z
	 M950.7,408.2c-1.7,0.4-3.9,1.9-6.7,4.1c-0.4-1.7-3.7-1.7-10-0.2c-1.1-4.6,16.6-11.1,53.4-19.6l5.2-1.1l1.1,4.4
	C967.9,403.4,953.5,407.7,950.7,408.2L950.7,408.2z M1015.3,338.4c-2.6,29.4-12.9,46-31.2,50.2l-0.6-2.4l-16.3,6.3l-7.2,1.7
	c-3.7,0.9-7,0.7-10-0.2l-1.5-6.5c-0.6-2.4,22.9-34.9,70.5-97.3l5.5,0.9C1026.8,299.7,1023.6,315.4,1015.3,338.4L1015.3,338.4z
	 M1129.6,240.6l-2.2,0.2l-0.4-4.6l9.6-0.9l0.2,2.4C1135.2,238,1132.8,238.9,1129.6,240.6L1129.6,240.6z M1082.5,713.4
	c-5.5-2.6-10.5-3.7-14.8-3.3l-0.6-7c-0.2-2.4,1.3-4.1,4.4-5c3.1-0.4,5,1.8,5.4,6.7c7.9-10.2,12.4-15.3,13.3-15.3l5,2
	C1093.4,705.5,1089.2,712.9,1082.5,713.4L1082.5,713.4z M1587.3,185.4c-2.4,0.2-7-7.2-14.2-22.2l-0.4-4.6c4.6-0.4,9.4,6.8,14.2,21.6
	L1587.3,185.4L1587.3,185.4z M1580.7,132.6l-2.2,4.8l-68.3-28.6C1555.8,110.2,1579.4,118.2,1580.7,132.6z M1291,381.3l-9.6,0.9
	l-0.4-4.6l9.6-0.7L1291,381.3L1291,381.3z M1283.1,231.9l2.6-0.2l0.6,7c-2.4,0.2-5.4,3.5-8.9,10l-0.4-4.6
	C1281.2,238.7,1283.2,234.7,1283.1,231.9L1283.1,231.9z M1262.9,279.9l0.7,9l-2.6,0.2l-0.7-9L1262.9,279.9z M1252,297.1l4.8-0.4
	c-0.6,7.8-2.6,11.8-6.1,12.2l-2.6,0.2C1250.9,303.9,1252.2,299.9,1252,297.1L1252,297.1z M1244.3,320.7l2.2-0.2l0.2,2.4l-4.2,7.4
	l-4.8,0.4l-0.2-2.4C1242.4,327.9,1244.6,325.3,1244.3,320.7L1244.3,320.7z M1236.5,342.1l-1.7,11.8l-2.2,0.2l-0.9-11.6L1236.5,342.1
	L1236.5,342.1z M1157.7,566.1c-3.1,15.5-6.5,23.5-10,23.8l-0.2-2C1147,580.1,1150.3,572.7,1157.7,566.1z M1143.1,597.3l0.2,2
	c0.4,3.3-1.1,5.2-4.4,5.4l-0.2-2.4C1138.5,599.9,1140,598.2,1143.1,597.3L1143.1,597.3z M1139,662.3l7.4-0.6l0.2,2.4
	c-1.7,0.2-4.2,1.1-7.2,2.8l-4.8,0.4C1134.4,664.7,1135.9,663,1139,662.3L1139,662.3z M1346.4,598.2c-40.6,20.1-64.8,33.8-72.4,40.8
	c-44.3,15.5-66.3,25.1-65.9,29c-39.3,15.7-65.2,27-77.4,34.2c-3,0.2-7.2-0.9-12.7-3.5c-0.7-7.9,3-14.4,10.7-19.2
	c7-0.6,13.7,0.4,19.8,3c7.4-3.7,20.1-7.8,38.2-12.4l-0.4-4.6l-15.1,1.1c1.9-2.6,16.1-9.2,42.5-19.9l7.4-0.6l0.2,2
	c-12.6,1.1-19.6,4.8-21,11.4c0.2,3,2,4.4,5.2,4.1c9.2-6.1,13.7-9.6,13.7-10.7c17.7-3.1,66.8-29,147.5-77.4l0.4,4.6
	C1367.1,582.2,1360.2,588.1,1346.4,598.2L1346.4,598.2z M1222.7,638.8c12-1.1,22.2-5.7,30.6-13.8c3.1-0.4,5,1.1,5.2,4.1
	c-5.5,0.6-16.4,5.2-32.9,14l-2.6,0.2L1222.7,638.8L1222.7,638.8z M1422.5,485.4l-61.5,49.5c-46,30.1-70.9,45.2-74.8,45.6
	c-73.1,40.2-118.5,61.1-136.4,62.6l-2.6,0.2c2.2-8.3,34.9-75,98-200.2c27.5-2.4,71.1-15.5,130.9-39.1l15-1.3
	c30.1-2.6,52.6,3.3,67.4,17.5l0.7,9C1447.9,461,1435.7,479.7,1422.5,485.4L1422.5,485.4z M1301.7,417.5l9.6-0.9l0.2,2.4l-9.6,0.9
	L1301.7,417.5z M1441.5,393.6l7.4-0.6c6.8,3.3,10.3,6.3,10.5,8.7l0.2,2C1453.1,404.4,1447,401,1441.5,393.6z M1460.9,281.2
	c-6.5,7.8-24,21-52.6,39.5c-9.6,0.9-45.1,14.6-106.4,41.2c-3-1.1-6.3-1.5-9.8-1.3l-0.4-4.6c-0.7-8.9,3.1-19.9,11.6-33.4
	c4.8-25.5,10.2-39.7,15.7-43l51.5-115.2c-0.6-6.8,10.3-12.4,32.5-16.6l7.4-0.6l0.6,7c21.8-3.5,35.4-5.5,41-6.1
	c40.6-3.5,61.9,4.6,63.5,24.6l4.8-0.4l-0.9-11.1l4.8-0.4c11.8,6.5,18.1,14.2,18.8,23.4c0.6,6.7-2.8,14.8-9.8,24.2
	c-3.1,0.4-5-1.8-5.4-6.6l-4.8,0.4l-1.5,13.8c-20.5,31.2-35.4,47.3-44.9,48C1468.4,275.3,1463.3,281,1460.9,281.2L1460.9,281.2z
	 M1482.5,358l-0.6-7l4.8-0.4l10.3,6.3c0.2,3-1.3,4.6-4.4,5C1488.2,359.1,1484.9,357.8,1482.5,358L1482.5,358z M623,806.5l-4.8,1.1
	l-4.1,3.5c0.7,3,2.6,4.1,5.7,3.3c3.1-0.7,4.4-2.6,3.7-5.5L623,806.5z M604.7,770.1l0.6,2.4c3.1-0.7,4.4-2.6,3.7-5.5l-0.6-2.4
	C605.4,765.3,604.1,767.2,604.7,770.1L604.7,770.1z M734.7,460.9l5.5-1.3l-1.1-4.8l-5.5,1.3L734.7,460.9L734.7,460.9z M2410.1,601.6
	c-56.1,12.6-63.1,10.3-75,11.3l0.4,4.6l5.2-0.4l2.8-0.2l-0.7-0.6l6.1-2.4c55.6-6.1,62-3.9,61.5-10.2L2410.1,601.6z M2107.8,641.6
	l0.4,4.6h0.7l-0.4-4.6H2107.8L2107.8,641.6z M2073.1,519.9l-5-1.7c-4.1,10.9-6.1,17.4-5.9,19.2l0.2,2
	C2066.3,539.3,2069.8,532.7,2073.1,519.9z M2421.5,600.6l0.4,4.6l8.1,1.5l-0.4-4.6L2421.5,600.6L2421.5,600.6z M2039.5,647.3
	l-12.6-1.5l-2.2,4.8l0.2,2.4l74.8-6.3l-0.4-4.6L2039.5,647.3L2039.5,647.3z M2005.5,483.6l-0.2-2.4l-2.6,0.2l-4.6,3l2.6,4.4
	C2004.2,488.4,2005.9,486.7,2005.5,483.6L2005.5,483.6z M2457,566.7l3.5-0.4c2-0.2,3-1.8,2.8-4.8l-2-4.4c-12.7,1.1-18.6,1.7-29,7.4
	l-0.2-2.4l-15.3,1.5c-0.4-4.6-1.7-7-3.7-6.8l-7.9,0.7c-9.2,0.7-13.7,0.4-18.3,3.9c-0.2-1.7-0.7-2.4-1.7-2.4l-8.9,0.7l-5.2,3
	c-0.2-1.7-0.7-2.4-1.7-2.4l-3.1,2.8l-0.2-2.4l-12.4-0.9l-3,0.2l0.4,4.6l6.3,1.7l5.9-0.4c2,1.3,4.2,1.7,6.8,1.5l5.2-2.6l0.2,2
	c-29,7.2-28.8,5.9-48.7,9.2c-2.2-1.5-3.9-2.2-5-2l-0.4,0.4c-2.2-0.2-3.5-1.7-3.7-4.1l10.3-1.3c0.7,0,1.3,0.7,7,1.8
	c8.3-4.1,8.7-5.7,13.1-6.1l-0.4-4.6c-28.4,5.5-17,1.9-52.6,5l-1.7,0.2l-0.4-4.6c45.8-5.5,30.5-2.4,46.2-6.8c0.2,1.7,0.7,2.4,1.7,2.4
	c1.7-1.7,3.9-2.8,6.3-3.1l3.1-0.2c16.1-1.3,21.4,1.8,53.2-7l0.2,2l5.2-2.6l4.8-0.4c-0.4-4.6,6.6-5.4,9-5.5l-0.4-5
	c-55.8,11.3-70.3,8.1-85.9,12.6l-0.2-2c-14.6,2.6-15.1,1.5-18.8,1.7c-1.1,0.2-2.8,1.1-4.6,3c-0.2-1.7-0.7-2.4-1.8-2.4
	c-0.6,0-0.7,0.2-0.9,0.2l-47.3,7.8c-0.2-1.3-0.7-2-1.8-1.8c-24.6,5.2-17.9,6.1-50.8,9c-1.5,0.2-3.5,0.9-6.1,2.6
	c-0.2-1.3-0.9-2-2.6-1.9l-20.1,1.7l-13.5,3.3c-0.2-1.3-0.9-2-2.6-1.8c-7.6,2-14.2,3.3-19.6,3.7h-0.4c-3.3,0.4,1.7-0.9-0.9-2
	l-4.1,2.4c-5.9,0.6-2.8-0.4-23.1-0.2c-35.6,4.4-31.8,5-35.6,5.2l-13.3-0.9c0.2,1.3-0.6,2.2-2,2.2c-15.1-2-22.9-4.4-23.1-7.2
	c2-14.4,5.5-21.8,10.5-22.2l2.6-0.2l-2.2,4.8l2.6-0.2c4.8-2.6,7-5,6.8-7.2l-0.4-5l-4.8,0.4l-0.4-4.6c-0.4-3.5,0.2-6.7,1.5-9.2
	l10.9-17.5l0.4,4.6l5.2-0.4l-0.4-4.6l-3-4.2c3.9-3.3,6.8-5.2,9.2-5.4l-0.2-2.4l-7,0.6l-0.6-7c14-29.2,20.7-46.2,20.3-51l5,2
	c3.1-0.2,4.6-2,4.4-5.4l-4.8,0.4l-0.2-2c-0.3-3.4,0.3-6.8,1.8-9.8c7.6-7.9,11.1-15.9,10.3-24.2c1.5-0.2,2.2,0.6,2.4,2.2
	c6.5-3.7,11.4-13.5,15.1-29.7c11.5-20.7,27.7-62,48.9-123.9c40.6-109.3,39-120.9,44.7-146.8l-4.8,0.4c0.4,3.3-0.4,6.5-1.8,9.4
	c-3.3-1.3-5.9-2-7.8-1.8l-0.2-2c-0.7-9.4,3.1-20.7,12-34l2.2-0.2L2226,89l4.8-0.4c-0.2-1.1,1.1-7.4,3.7-19c-0.2-2.4-2-3.9-5.7-4.1
	l-4.6,3c-0.4-3.3-0.2-12,0.4-25.8l-2.4,0.2c-4.1-4.1-6.1-7.4-6.3-10.2l-26.4,2.6c-0.2-1.8-1.1-4.6-3-8.1c-0.2-2.4,5.7-4.8,17.9-7.2
	l5.4,2l5-3c0.2,1.7,1.1,2.4,2.9,2.2l5-3c0.2,1.7,1.1,2.4,3,2.2l2.4-0.2l-0.4-5.4c-3.7,0.4-13.5,0.4-29-0.2l-5,3.3l-0.2-3
	c-123.9,10.2-194.2,15.9-211,17.5c-2.2,0.2-10.9,0-26.2-0.4c0.2,2-1.7,3.1-5.4,3.5l-5.4-2.4l-18.1,4.6c-4.2,0.4-11.4,0.2-21.4-0.9
	c-2.8,2.2-6.1,3.5-10.2,3.9c-2.2,0.2,26.4-1.5,53-3.3c-2.8,2.2-7,3.5-12.9,4.1c-4.1,0.4-7.6-0.2-10.5-1.8
	c-4.1,1.8-17.2,4.8-39.1,9.2l-5.4-2l-86.4,13.3c-3.3-1.7-7.2-2.2-11.6-1.8c-4.6,0.4-12.4,2-23.1,5l-41.7,17.4l3.1,5.2
	c2-0.2,5-1.3,8.5-3.3l14.8,1.3l-1.9,13.8c-13.7,6.1-21.6,15.1-23.8,26.6c-20.5,9-30.6,15.5-30.6,19.4l0.2,2.4l3.1-0.2l5.5-3l6.5,7.8
	l0.9,10.7c0.4,3.3-34.2,75.9-103.2,217.7c-59.8,136.6-91.2,211.4-94.2,224.9c-20.5,5.7-32.3,14-35.8,25.1c0.4,3.5,6.5,5.9,18.3,6.8
	l0.6,5.4l-5.4,8.9l0.9,10.7c0.6,5.5,15.5,9.8,44.9,12.7c-0.2-1.8,0.7-3,2.8-3.1c0.6,6.6-1.3,19.6-5.5,38.8l3.1-0.2
	c12.2-16.6,17.9-28.1,17.4-34.3l2.6-0.2c3-0.2,6.1,3.1,9.8,10.3c-3.7,1.5-16.6,30.8-38.8,88.3l3.1,5.2l3.1-0.2
	c27.1-68.7,44.1-106.7,51.1-113.9c35.6-3.1,97.3-9.4,184.8-18.8l5.5-3.3c0.2,1.8,1.3,2.8,3.3,2.6l5.7-0.6l5.5-3.3
	c0.2,1.8,1.3,2.8,3.3,2.6l66.3-5.7c17.5-1.5,25.8-6.8,25.1-15.9c-0.2-2.4,10.2-5.2,31-8.1c2-0.2,5,0.4,9,1.7
	c-0.2-1.7,10.3-3.3,31.4-5.2c0.6-11.1,4.1-17,10.3-17.5l-0.6-5.4c-5.9,0.6-12.6,2-20.3,4.6c-13.8-0.7-22.7-1.8-26.4-3.1
	c-3.7,2-6.5,3.1-8.5,3.3l-46.2,1.5l-5.5,3c-0.2-1.7-1.3-2.4-3.3-2.2l-2.6,0.2l-5.9,3c-0.2-1.7-5-3-14.6-4.2l-5.9,3.5l-11.5,0.9
	l-0.2-3c59.5-6.5,88.8-14.6,88.1-24.2c3.9-0.4,5.9,1.5,6.3,5.4l17.4-4.4l-0.6-5.4l-142.4,3.9c0.2,1.9-0.7,3-2.8,3.1l-17.4-1.5
	c-4.4,0.4-8.1,1.7-11.1,3.9l-6.5-2.4c-17.9,1.5-31.2,3.7-40.1,6.5c-12.2-0.9-25.7-0.7-40.6,0.6l-31.9,2.8l-14.8-1.7
	c-0.7-9.4,17.5-55.8,55.2-138.8c10.9-28.1,20.9-45.6,30.5-52.3c2-0.2,5,0.6,9,2.2l22.7-7.8l11.6,1.8c19.6-1.7,42.3-7.2,68.3-16.8
	c6.5-0.6,11.3-0.2,14.8,1.3l17.4-4.1l51.7-4.4c22-1.8,45.8-6.7,71.6-14.6l-0.6-5.4c-9.6,0.9-14.6-0.7-15-4.6c-0.6-7.2-7.6-10.2-21-9
	l-0.6-5.4l14.2-4.1l37.3-3.1l-0.6-5.4c-1.5,0.2-9,0-23.1-0.6l-0.6-5.7l14.4-1.3c3.9-0.4,5.5-2.2,5.2-5.9c-19.4,0.6-29.2-0.4-29.4-3
	c-135.2,6.6-202.9,7.9-203.3,3.7c-2,0.2-4.8,1.5-8.5,3.7l-3.5-5.5c35.8-76.1,56.9-114.5,63-115c0.2,3-1.3,7.8-4.6,14.2l0.2,2.4
	l5.7-0.6c14.2-34,26.2-51.5,36.2-52.3c42.5-3.7-5.9-6.5,84.9-20.7c3.7,1.7,6.3,2.4,8.1,2.2c35.6-7.2,85.3-14.8,149-22.5l-0.4-5.4
	l-34,3.1l-0.4-5.4c4.1-0.4,7.4-1.7,10.2-3.9l0.2,3c1.9-0.2,4.4-1.5,7.8-3.7c5.9-0.6,10.3,0,13.5,1.7c11.8-3.1,21.4-5,28.4-5.7
	l21.2-2c5.2-3.3,7.6-6.3,7.4-9l-0.2-2.4c-5.4,0.6-11.5,0.2-18.6-1.1c-0.2-3,1.3-5,4.8-5.9l39.5-3.7l18.1-4.6c0.2,2,1.1,2.8,2.6,2.8
	c1.8-0.2,4.4-1.5,7.8-3.7c0.9,0.2,2,0.2,3,0.4c-2.4,5-5.2,12.2-7.9,21.6l-5.2,0.4c-0.4-3.5-1.3-6.6-3-9.4l-2.6,0.2
	c-48,133.7-69.4,195.9-113.7,298.6c-8.1,26.2-15,40.8-20.9,43.9c0.2,3,2,4.4,5.2,4.1c1.1,12.9-1.9,25.7-9,38.2
	c-20.5,59.1-34.2,91.4-41.2,97.3l4.6,27.9c0.2,3-1.3,4.6-4.4,5l-4.8,0.4c-0.7-7.8-3.5-11.5-8.5-10.9l-2.6,0.2
	c-6.3,9.8-11.1,21-14.2,34.2l4.8-0.4c6.5-4.2,9.4-9.2,8.9-15l9.6-0.9l5.5,2c-4.4,7-6.5,12.6-6.1,16.8l2.6,4.4l-6.3,14.8l0.2,2.4
	c5.5-0.6,11.6,1.3,18.1,5.2c4.4-0.4,9.2-2.4,14.6-5.9c5.5-0.6,26.2-0.7,61.9-0.7l17.9-6.1c21.8-0.2,25.3,0.4,44.1-1.3l7.8-0.7
	l4.1-2.8l0.2,2.4c19.8-1.7,21-0.4,36.6,1.5l0.2,2.4l-10.9,0.9l0.4,4.6c3.3-0.4,6.3-1.3,8.7-3.3c2.8-0.2,4.4,1.3,4.6,4.6
	c-4.4,0.4-9.4,1.5-15,3.3l-4.8-1.7c-7.6,2-5.9,2.6-11.1,3l-7.6-1.5c0.2,1.3-0.6,2.2-1.8,2.2c0.2,3,1.8,4.4,4.6,4.2l7.8-0.7l40.4-3.5
	l15.3-3.3c0.2,1.3,0.7,2,2,1.8l7.4-2.8l13.9-1.1c10.7-0.9,10.5-1.7,33.8-5.4c-0.2-1.5,0.4-2,1.5-2.2l0.2,2
	c37.9-6.5,40.2-6.8,46.3-8.9l0.6,1.1c9.4-2.2,4.1-1.7,6.7-3.5c0.2,1.7,0.7,2.4,1.7,2.4l6.6-0.6l-0.4-5l-13.5-0.2l-0.2-0.4
	c-0.6,0.2-0.9,0.2-1.5,0.4h-1.8v0.4c-9,1.8-9.2,0.6-15.1,1.1l-33.8,1.8l-0.2-2.4l18.8-2.6l6.8-0.6l3.9-2.8l0.2,2.4
	c26.6-2.2,36,4.4,159-21.8c6.6-0.6,6.1-6.1,10.3-17.5c-2.3,0.2-4.5-0.4-6.5-1.5c-10.2,3.9-15.5,2-35.1,5.2c-1.7,0.2-3-1.3-3.5-4.2
	l-0.2-2l18.8,0.6c3.5-0.4,10.3-0.9,20.5-6.6C2458.5,565.9,2454.8,566.8,2457,566.7L2457,566.7z M1547.8,581.2l-8.7,0.7
	c-0.4-3.5,4.2-16.8,13.8-39.5l5.7-0.6C1558.9,547.3,1555.4,560.4,1547.8,581.2z M1558.3,539.1l-0.2-2.4c-0.2-3,1.7-5,5.7-5.9
	l0.2,2.4C1564.3,536.7,1562.4,538.8,1558.3,539.1z M1673.7,628.3l0.2,2.4l-14.4,1.3l-0.2-2.4L1673.7,628.3L1673.7,628.3z
	 M1656.4,626.8c0.2,3-4.2,6.3-13.8,9.6l-17.7-1.3l-5.7,0.6l-0.6-5.4L1656.4,626.8L1656.4,626.8z M1773.1,89.7l-8.7,0.7l-0.2-3
	c-0.2-3,1.5-5,5.2-5.9l3.1-0.2l5.9,2.4C1778.6,87.3,1777,89.4,1773.1,89.7z M1905.1,63.9l2.8-0.2l0.4,5.4l-7.9,0.7
	C1900.1,66.8,1901.6,64.8,1905.1,63.9z M1871.9,75.5l-13.1-1.5l-0.2-2.4c17.2-1.5,22.9-3.3,33.4-6.3c0.2,2,2,2.8,5.4,2.4l0.4,5.4
	l-5.2,0.6c-4.1,0.4-7.6-0.2-10.5-1.8C1878.9,73.9,1875.6,75.1,1871.9,75.5L1871.9,75.5z M1888.3,123.3l-0.2-2.4l21.2-2l0.2,2.4
	L1888.3,123.3z M1911,104.9l-0.2-3l10.3-0.9l0.2,3L1911,104.9z M1913.4,68.7l-2.8,0.2l2.4-5.7l23.6-2.2l0.2,3
	C1930.8,64.4,1922.8,66.1,1913.4,68.7z M1925.4,119.6l-0.4-5.4l10.3-0.9c3.5-0.4,5.4,1.3,5.5,5L1925.4,119.6L1925.4,119.6z
	 M1988,34.3l-13.3,3.7l-2.4,0.2c-6.3,0.6-14.4,0.4-24-0.6C1965.5,36.6,1981.9,35.3,1988,34.3L1988,34.3z M1973.8,93.4l0.2,2.4
	l-18.3,1.7l-0.2-2.4C1955.5,95.1,1973.8,93.4,1973.8,93.4z M2003.7,107.6c-0.2-2.2-3.7-3.7-10.9-4.4l-18.3,5.2l-14,0.6
	c-3.1-2.2-4.8-3.7-5-4.8l16.3,0.9l36.6-5.9l18.6,0.7l0.2,3C2017.9,103.8,2010.2,105.4,2003.7,107.6z M2191.8,59.1
	c2.2,0.2,3.7,0.2,4.2,0.2c6.5-6.3,13.7-11.3,22-14.8c-6.6,29.2-17,50.8-31.2,64.8l-10.3-6.3C2185.2,81.1,2190.4,66.5,2191.8,59.1
	L2191.8,59.1z M2160.1,113.6l2.6-0.2c-3.5,6.6-6.6,10.2-9.2,10.3l-0.6-7C2154.5,116.7,2156.9,115.6,2160.1,113.6z M2139.6,162.5
	c5-19.9,9.8-31.2,14.2-34.2l0.2,2.4c-2.6,18.5-6.7,28.3-12,29l0.9,11.6c-4.4,6.3-6.5,11.1-6.3,14.8l-2.6,0.2l-1.5-16.1
	C2135.5,169.9,2137.9,167.3,2139.6,162.5L2139.6,162.5z M2131.6,189.1c0.2,2.8-1.7,9.2-5.4,19.2l-2.6,0.2l-0.6-7
	C2126.7,193.3,2129.6,189.3,2131.6,189.1L2131.6,189.1z M1982.6,621.5l-0.2-2l4.8-0.4l0.6,7C1985.2,626.3,1983.4,624.8,1982.6,621.5
	z M2195.5,627c-0.2-1.7-0.9-2.4-2.6-2.2l-12,1.1l-0.2-2.4h1.1l28.4-2.4l0.2,2.4C2202.2,623.9,2197.2,625.2,2195.5,627z
	 M2181.3,621.1c1.1,0.6,0.6,1.1,0,1.5C2180.8,622.4,2180,621.9,2181.3,621.1z M2182.8,587.9l-15.9,1.3l-0.2-2.4l14.4-1.3l12.6-3.1
	c0.2,1.5,0.9,2,2.6,1.8c15-2.6,13.5-3.3,20.7-3.9c2.4-0.2,3.9,1.3,4.1,4.2L2182.8,587.9L2182.8,587.9z M2238.4,583.1
	c-8.9-0.9-9.4-1.7-15.7-1.1l-0.2-2l14.2-1.3l0.2,2C2235.4,580.9,2240.8,581.2,2238.4,583.1L2238.4,583.1z M2239.5,580.5l-0.2-2
	l7.8-0.7l0.2,2L2239.5,580.5z M2256.6,579l-0.2-2c1.3-0.2,3.1-1.1,5.5-3c3.9-0.4,5.9,2.2,6.3,5.2L2256.6,579L2256.6,579z
	 M2278.6,576.3l-0.2-2.4l9.4-0.7l0.2,2.4L2278.6,576.3z M2291.7,575.1c-0.2-2.8,0.9-4.4,3.3-4.8l3.1,4.1c-0.2-1.3,0.4-2,1.5-2.2
	l2.4,4.4L2291.7,575.1L2291.7,575.1z M2152.3,635.3l-0.4-4.6l-1.5,0.2l0.4,4.6L2152.3,635.3z M2476.7,551.3c1.5-0.9,2.2-1.8-1.3-2.4
	c-1.7,1.8,1.8,2.4-1.8,2.6l0.2,1.7c0.4-0.4,1.3-0.9,2-1.5l-2,1.7v0.2l-3.9,5l7.8-2.8h0.9l-0.4-4.6L2476.7,551.3z M2490.2,561.9
	l-1.5,0.2l0.4,4.6l10.9-0.9C2499.8,562.8,2492.6,561.9,2490.2,561.9L2490.2,561.9z M2473.4,553.7l0.2-0.2v-0.2
	C2473.6,553.4,2473.4,553.5,2473.4,553.7L2473.4,553.7z"/>
<path class="st0" d="M1764.6,212l0.2,3l6.1-0.6c-0.2-1.8,0.6-4.8,1.8-8.5l-0.6-5.4C1769.6,200.7,1767,204.6,1764.6,212L1764.6,212z
	 M1706.2,71.6l-0.6-5.4L1697,67l0.6,5.4L1706.2,71.6z M1536.9,388.7c-0.4-5-15.9-24.4-46.5-58.5c-0.6-6.3,10-15.7,31.6-28.1
	l61.7-53.7c13.8-17.5,22-46,24.4-85.5l-0.7-9c-2.4-27.3-22.2-49.3-59.6-66.1c-22.2-15-62-23.3-119.6-24.7
	c-47.6,4.1-109.9,21-186.5,51.1c-21,15.1-45.1,30.3-72,45.4l0.4,4.6c1.7-0.2,4.2-1.1,7.2-3.1c3.1-0.4,5,1.1,5.2,4.1l4.6-2.4l2.2-0.2
	l0.2,2c0.2,2.4-16.4,15.5-50,39l2.6,4.8l-2.2,0.2l-5.5-2c0.2,1.7-2.2,2.8-6.8,3.1l0.2,2l5.4,6.6c-1.7,0.2-4.2-0.6-7.8-1.8
	c-7.8,0.7-15.3,4.8-22.9,12.6l3.1-13.7c11.3-48.6,19-91.6,23.1-128.9l-0.6-2.4c-7.8-5-15.3-12-22.3-20.9c0.2-5.7,0.2-9,0-9.8l-0.6-2
	l-2.2,0.6c-24.4,36.6-71.3,99-140.9,187.2c-53,62.8-80.3,97.7-82,104.7c-21.6,22.3-31.9,35.8-30.8,40.4c-5.7,3.7-8.1,7.4-7.2,11.4
	c-1.7,0.4-2.8-0.2-3.1-1.8c-9.2,15-22.9,24.6-41.2,28.8l-19.2,4.4c-2.6,0.6-3.9,2.4-3.7,5.5l0.6,2.4l7.2-1.7l0.6,2l-16.3,6.3
	l-28.8,6.6l-15.1,0.9c-2.2,2.2,12-0.2,6.5,1.1l-18.8,4.4c-11.4,2.6-17.7,1.7-18.8-3l-2.2,0.6c0.4,2,0.6,3.5,0.2,4.8l-1.1-4.6
	l-15.1,3.5c-1.1-7-21.6-32.5-61.3-76.4c-0.7-8.5,13.3-20.9,41.9-36.9l80.9-71.1c18.1-23.3,28.8-60.6,32.3-111.9l-1.1-12
	c-3.1-36.2-29.4-65.4-78.7-87.9c-29.2-19.8-81.6-30.3-157.3-31.9c-62.8,5.4-144.8,27.7-245.6,66.7c-27.7,20.1-59.3,40.1-94.7,59.8
	l0.6,6.3c2.4-0.2,5.5-1.5,9.4-3.7c4.1-0.4,6.3,1.5,6.6,5.2l6.3-3.5l3.1-0.2l0.2,3c0.2,3-21.8,20.1-66.3,51.5l3.5,5.5l-3.1,0.2
	l-6.8-2.4c0.2,1.8-3,3.1-9.4,3.7l0.4,3.3l7.4,8.1c-2.4,0.2-5.7-0.6-10-2c-14.4,1.3-28.4,11.6-42.3,31.2l3.5,5.5
	c12-11.1,19-16.6,21-16.8l0.7,9c-2,0.2-5.2,1.5-9.4,3.7l7.6,11.4c14.3-15.5,30.5-29,48.2-40.4c8.7,2.2,13.3,5,13.5,7.9l6.7-0.6
	c47.6-35.3,94.7-60.7,141.4-76.4l0.6,6.3c-8.7,12.9-14.6,19.6-17.7,19.9c0.4,4.4,1.9,8.3,4.6,11.6c0.7,7.9-20.5,61.5-63.5,160.4
	C148.6,592.3,66.7,762.6,0,872.6c0.2,2.2,1.5,5.2,3.9,8.9c16.4-3.9,26.8-7.9,31.2-11.8l3.5-0.4l0.6,6.3l6.1-0.6l6.3-3.5
	c0.2,1.8,2.2,2.8,6.5,2.4l0.6,6.3c0.6,6.1-3,15.3-10.3,28.1c-6.6,7.6-13.8,23.5-21.4,47.6l0.2,2.9l6.1-0.6
	c26.6-29.7,46.7-58.9,60.6-87.3c77.5-22.7,136.6-45.1,177.6-67c41.2-3.5,72.6-14.4,94-32.3l-0.4-3.3l-15.5,4.6l-3.5,0.4l-0.4-3.3
	c30.3-4.6,51.1-11.3,62.8-20.5c58.9-45.4,103.4-77.5,133.5-96.6c61.9-45.4,102.1-89.7,120.4-132.8c3.3-0.7,6.6-1.5,10.3-2.4
	c8.7-0.4,13.5-0.6,14.8-0.9c-0.4-1.7,0.4-2.6,2-3c13.8-1.5,7.2,0.9,16.1-1.1l23.3-5.4l3.9-0.9l-1.8,1.1c2.6,0.4,5.4,0.2,8.5-0.6
	l1.7,6.8L635,682.1l-23.4,29.4l-11.5,38.4l2.2-0.6l11.4-4.8l-3.7,15l1.1,4.4l3.1,3.9c-1.5,0.4-2,1.3-1.7,3l0.6,2.4l4.8-1.1
	c7-6.1,10-11.6,8.9-16.6c7.6,1.3,12.6,1.8,15.1,1.1l0.6,2.4c-4.6,1.1-7,4.8-7.4,11.1l0.6,2.4l2.6-0.6
	c38.4-41.9,132.6-185.4,208.1-282.7c-2.4-10.5,36.9-25.1,118.2-43.9l2.6-0.6c3,12.7-3.3,43.6-18.8,92.5c-10,29.5-14.8,45.8-14,48.4
	c-12.9,39.3-19,60.6-18.3,63.9l-28.8,94.4c-18.7,48.4-32.9,99.2-42.8,152.7c1.7-0.4,4.2-0.2,7.9,0.7l4.1-3.5
	c0.4,1.7,1.5,2.2,3.1,1.8l-1.7-6.8l12.6-0.4c3.7-0.9,6.8-5.5,9.4-14c-0.6-12.7,2-19.6,7.8-21c7.8-30.3,12.6-45.4,14.2-46
	c7.2-30.1,12.6-47.3,16.1-51.5c10.9-39.1,18.8-59.3,24-60.6l1.1,4.8l-7.9,20.5c-13.9,61.5-27.9,110-42.1,145.7l4.1,17.7l2.6-0.6
	c34.3-73.9,83.8-220.1,148.3-438.7c1.8-19.2,11.1-34.2,27.5-44.7l-3.7-3.9l-0.6-2c7.4-1.7,12.6-4.6,15.5-8.7
	c-0.4-1.7-6.8-4.1-19.4-7.4l32.1-137.7c7-6.3,11.1-9.6,12.4-9.6l0.6,7c-1.7,0.2-4.2,1.1-7.2,3.1l6.1,8.7c11.1-12,23.1-22.3,36.2-31
	c6.7,1.8,10,4.1,10.3,6.3l4.8-0.4c36.6-26.8,72.4-46,107.6-57.6l0.4,4.6c-6.5,9.8-10.9,14.8-13.3,15c0.4,3.3,1.3,6.3,3,8.9
	c0.6,6.1-15.3,46.7-47.8,122c-74.2,174.5-136.5,303.5-187,387.4c0.2,1.7,1.3,3.9,3.3,6.8c12.4-3,20.3-6.1,23.5-9l2.2-0.2l0.4,4.6
	l5.2-0.4l4.6-2.4c0.2,1.3,1.8,1.8,5,1.7l0.4,5c0.4,4.4-2.2,11.4-7.9,21c-5.4,5.7-10.9,17.7-16.8,36l0.2,2.4l4.8-0.4
	c20.1-22.5,35.4-44.7,46-66.5c58.9-17.4,103.8-34.2,134.8-50.8c31.6-2.8,55.4-10.9,71.6-24.6l-0.2-2.4l-12,3.5l-2.6,0.2l-0.2-2.4
	c22.9-3.3,39-8.5,47.6-15.3c44.7-34.3,78.5-58.9,101.4-73.3C1507.8,486.3,1541,436.5,1536.9,388.7L1536.9,388.7z M1524.7,391.8
	l1.7,18.6c-2.2,4.6-4.6,7-6.8,7.2l-2.8-31.8C1522,387.7,1524.6,389.6,1524.7,391.8L1524.7,391.8z M126.7,241.5l-3.1,0.2L123,236
	l12.7-1.1l0.2,3C133.9,238,130.7,239.1,126.7,241.5L126.7,241.5z M64.4,863.9c-7.4-3.3-14-4.6-19.8-4.1l-0.7-9
	c-0.4-3.5,1.7-5.9,6.1-6.8c4.1-0.4,6.5,2.6,6.8,8.5c10.7-13.1,16.6-19.8,17.7-19.9l6.8,2.8C79.2,853.8,73.5,863.2,64.4,863.9z
	 M729.3,168.4c-3.1,0.4-9.4-9.4-18.5-28.8l-0.6-5.7c5.9-0.6,12,9,18.5,28.8L729.3,168.4z M720.5,99.5l-2.6,6.1l-90.3-37.7
	C687.8,70,718.8,80.5,720.5,99.5z M339.2,426.9l-12.7,1.1l-0.6-5.7l12.7-1.1L339.2,426.9z M328.8,230.2l3.1-0.2l0.7,9
	c-3,0.2-6.8,4.6-11.6,13.1l-0.6-6.3C326.3,239.1,329.2,233.9,328.8,230.2L328.8,230.2z M302.1,293.4l1.1,12l-3.1,0.2l-1.1-12
	L302.1,293.4z M288,315.9l6.1-0.6c-0.6,10-3.3,15.3-8.3,15.7l-3.1,0.2C286.6,324.6,288.4,319.4,288,315.9z M277.5,347.3l3.5-0.4
	l0.2,3l-5.7,9.6l-6.1,0.6l-0.2-3C275.3,356.5,278.1,353.4,277.5,347.3L277.5,347.3z M267.2,375.6l-1.8,15.1l-3.1,0.2l-1.3-15
	L267.2,375.6z M163.6,670.1c-4.1,20.7-8.5,31.2-13.1,31.6l-0.2-3C149.2,688.5,153.6,678.9,163.6,670.1L163.6,670.1z M144.6,711.2
	l0.2,3c0.4,4.1-1.5,6.5-5.5,6.6l-0.2-3C138.7,714.4,140.5,712.1,144.6,711.2z M139,796.7l9.6-0.9l0.4,3.3c-2.4,0.2-5.5,1.5-9.4,3.7
	l-6.1,0.6C133.1,800.2,135.2,797.8,139,796.7L139,796.7z M412.3,712.3c-53.9,26.6-85.7,44.7-95.1,54.1
	c-58.3,20.3-87.3,32.9-86.8,37.9c-51.9,20.5-86,35.6-102.5,45.1c-3.9,0.4-9.4-1.1-16.8-4.4c-0.9-10.5,3.9-19,14-25.8
	c9-0.7,17.7,0.6,26,4.1c9.6-5,26.4-10.5,50.2-16.4l-0.6-6.3l-19.2,1.7c2.4-3.3,20.9-12,55.6-26l9.6-0.9l0.2,3
	c-16.4,1.5-25.5,6.3-27.5,15c0.4,3.9,2.6,5.5,6.6,5.2c12.4-7.8,18.5-12.4,18.3-13.7c23.4-4.4,88.3-38.4,194.4-101.7l0.6,5.7
	C439.6,691.3,430.6,699,412.3,712.3z M249.4,765.9c15.5-1.3,28.8-7.6,39.9-18.5c4.4-0.4,6.8,1.3,7,5.2c-7.6,0.7-22.2,7-43.4,19.2
	l-3.1,0.2L249.4,765.9L249.4,765.9z M512.2,564.1l-81.4,64.6c-60.6,39.7-93.1,59.6-97.9,60c-96.4,53-156.4,80.5-179.6,82.5l-3.5,0.4
	c3-10.9,45.8-98.6,128.9-263.7c36.6-3.1,94.2-20.1,172.6-51.1l19.2-1.7c39.7-3.5,69.4,4.2,89,22.7l1.1,12
	C546,532.1,529.7,556.9,512.2,564.1L512.2,564.1z M353,474.5l13.1-1.1l0.2,3l-13.1,1.1L353,474.5z M537.1,443.3l9.6-0.9
	c8.9,4.2,13.5,7.9,13.8,11.3l0.2,3C552.3,457.3,544.3,452.9,537.1,443.3z M563.1,295.1c-8.5,10.2-31.8,27.5-69.8,51.9
	c-12.6,1.1-59.3,19.2-140.1,54.7c-4-1.8-8.5-2.6-12.9-2.2l-0.6-5.7c-0.9-11.6,4.2-26.2,15.7-43.9c6.3-33.2,13.1-52.3,20.7-56.9
	l67.4-151.6c-0.7-9.4,13.7-16.6,43.2-21.6l9.6-0.9l0.7,8.7c29-4.4,47.1-7,54.1-7.6c53.5-4.6,81.4,6.3,83.6,32.3l6.1-0.6l-1.3-15.3
	l6.7-0.6c15.7,8.7,24.2,19.2,25.3,31.6c0.7,8.5-3.9,19-13.7,31.6c-4.1,0.4-6.5-2.6-6.8-8.5l-6.7,0.6l-1.5,18.5
	C615.8,250,596,270.9,583.8,272C572.7,287.3,565.9,294.9,563.1,295.1L563.1,295.1z M604.5,401.2c-5.5-3.7-10-5.4-13.3-5.2l-0.7-9
	l6.1-0.6l13.5,7.9C610.6,398.6,608.8,400.8,604.5,401.2L604.5,401.2z M647.3,452c5.9,2.4,9.4,5,10.2,7.4l-3,0.7l0.2,0.2
	c-0.6,0-1.3,0.2-1.8,0.4l-4.4,3.5L647.3,452L647.3,452z M651.4,477.5l-0.6-2.4l7.8-1.8l0.6,2.4L651.4,477.5L651.4,477.5z
	 M670.1,498.3c7.9-1.3,11.8-1.8,26.6-5.2l0.6,2.4l-28.1,6.5C669.5,500.7,669.9,499.4,670.1,498.3L670.1,498.3z M697.4,510
	c-11.8,1.1-9.2-0.4-28.1,3.9l-0.6-2.4l23.6-7.6l11.3-2.6l1.1,4.4C699.6,506.8,703.3,506.8,697.4,510z M722.3,504.1
	c-2.8,0.7-5-0.6-6.3-3.7l7.2-1.7c3.1-0.7,5.2,0.6,5.9,3.7L722.3,504.1L722.3,504.1z M789.9,431.3l-0.6-2.4l11.6-2.8l1.1,4.4
	L789.9,431.3z M862.1,874.1c0.7-3.3,0.9-5.7,0.6-7.4l2.6-0.6c3.1-0.7,5,0.4,5.7,3.3l0.6,2.4L862.1,874.1L862.1,874.1z M912.7,450.3
	l-5.2-0.9c-8.3,3.3-15.3,5.7-21,7l-4.8,1.1c-2.8,0.7-5-0.4-6.1-3.3l33.8-7.8l11.1-5.2l3.7,4.2C918.8,446.6,914.9,448.3,912.7,450.3
	L912.7,450.3z M938.7,442l-0.6-2.4c1.7-0.4,3.9-1.7,6.3-4.1l24-5.5l0.6,2.4C956.2,435.6,946.1,438.7,938.7,442z M942.4,393.5
	c-1.7,0.4-3.9,1.8-6.6,4.1c-0.4-1.7-3.7-1.7-10-0.2c-1.1-4.6,16.6-11.1,53.4-19.6l5.2-1.1l1.1,4.4
	C959.6,388.7,945.2,392.9,942.4,393.5L942.4,393.5z M1007,323.7c-2.6,29.4-12.9,46-31.2,50.2l-0.6-2.4l-16.3,6.3l-7.2,1.7
	c-3.7,0.9-7,0.7-10-0.2l-1.5-6.5c-0.6-2.4,22.9-34.9,70.5-97.3l5.5,0.9C1018.5,284.9,1015.3,300.6,1007,323.7L1007,323.7z
	 M1121.3,225.8l-2.2,0.2l-0.4-4.6l9.6-0.9l0.2,2.4C1126.8,223.2,1124.4,224.2,1121.3,225.8z M1074.2,698.7
	c-5.5-2.6-10.5-3.7-14.8-3.3l-0.6-7c-0.2-2.4,1.3-4.1,4.4-5c3.1-0.4,5,1.8,5.4,6.6c7.9-10.2,12.4-15.3,13.3-15.3l5,2
	C1085.1,690.7,1080.9,698.1,1074.2,698.7z M1579,170.6c-2.4,0.2-7-7.2-14.2-22.2l-0.4-4.6c4.6-0.4,9.4,6.8,14.2,21.6L1579,170.6
	L1579,170.6z M1572.4,117.8l-2.2,4.8L1501.8,94C1547.5,95.5,1571.1,103.4,1572.4,117.8z M1282.7,366.5l-9.6,0.9l-0.4-4.6l9.6-0.9
	L1282.7,366.5z M1274.7,217.1l2.6-0.2l0.6,7c-2.4,0.2-5.4,3.5-8.9,10l-0.4-4.6C1272.9,224,1274.9,219.9,1274.7,217.1L1274.7,217.1z
	 M1254.6,265.1l0.7,9l-2.6,0.2l-0.7-9L1254.6,265.1z M1243.7,282.3l4.8-0.4c-0.6,7.8-2.6,11.8-6.1,12.2l-2.6,0.2
	C1242.6,289.1,1243.9,285.1,1243.7,282.3L1243.7,282.3z M1236,305.9l2.2-0.2l0.2,2.4l-4.2,7.4l-4.8,0.4l-0.2-2.4
	C1234.1,313.1,1236.3,310.6,1236,305.9L1236,305.9z M1228.2,327.4l-1.7,11.8l-2.2,0.2l-0.9-11.6L1228.2,327.4L1228.2,327.4z
	 M1149.4,551.3c-3.1,15.5-6.5,23.5-10,23.8l-0.2-2C1138.7,565.4,1142,558,1149.4,551.3L1149.4,551.3z M1134.8,582.5l0.2,2
	c0.4,3.3-1.1,5.2-4.4,5.4l-0.2-2.4C1130.2,585.1,1131.6,583.5,1134.8,582.5L1134.8,582.5z M1130.7,647.5l7.4-0.6l0.2,2.4
	c-1.7,0.2-4.2,1.1-7.2,2.8l-4.8,0.4C1126.1,649.9,1127.6,648.3,1130.7,647.5L1130.7,647.5z M1338.1,583.5
	c-40.6,20.1-64.8,33.8-72.4,40.8c-44.3,15.5-66.3,25.1-65.9,29c-39.3,15.7-65.2,27-77.4,34.2c-3,0.2-7.2-0.9-12.7-3.5
	c-0.7-7.9,3-14.4,10.7-19.2c7-0.6,13.7,0.4,19.8,3c7.4-3.7,20.1-7.8,38.2-12.4l-0.4-4.6l-15,1.3c1.8-2.6,16.1-9.2,42.5-19.9l7.4-0.6
	l0.2,2c-12.6,1.1-19.6,4.8-21,11.5c0.2,3,2,4.4,5.2,4.1c9.2-6.1,13.7-9.6,13.7-10.7c17.7-3.1,66.8-29,147.5-77.4l0.4,4.6
	C1358.8,567.4,1351.9,573.3,1338.1,583.5L1338.1,583.5z M1214.4,624.1c12-1.1,22.2-5.7,30.6-13.8c3.1-0.2,5,1.1,5.2,4.1
	c-5.5,0.6-16.4,5.2-32.9,14l-2.6,0.2L1214.4,624.1L1214.4,624.1z M1414.1,470.6l-61.5,49.5c-46,30.1-70.9,45.2-74.8,45.6
	c-73.1,40.2-118.5,61.1-136.5,62.6l-2.6,0.2c2.2-8.3,34.9-75,98-200.1c27.5-2.4,71.1-15.5,130.9-39.1l15-1.3
	c30.1-2.6,52.6,3.3,67.4,17.5l0.7,9C1439.6,446.3,1427.4,464.9,1414.1,470.6L1414.1,470.6z M1293.4,402.7l9.6-0.9l0.2,2.4l-9.6,0.9
	L1293.4,402.7z M1433.2,378.9l7.4-0.6c6.8,3.3,10.3,6.3,10.5,8.7l0.2,2C1444.8,389.6,1438.7,386.3,1433.2,378.9z M1452.5,266.4
	c-6.5,7.8-24,21-52.6,39.5c-9.6,0.9-45.1,14.6-106.4,41.2c-3-1.1-6.3-1.5-9.8-1.3l-0.4-4.6c-0.7-8.9,3.1-19.9,11.6-33.4
	c4.8-25.5,10.2-39.7,15.7-43l51.5-115.2c-0.6-6.8,10.3-12.4,32.5-16.6l7.4-0.6l0.6,7c21.8-3.5,35.4-5.5,41-6.1
	c40.6-3.5,61.9,4.6,63.5,24.6l4.8-0.4l-0.9-11.1l4.8-0.4c11.8,6.5,18.1,14.2,18.8,23.4c0.6,6.6-2.8,14.8-9.8,24.2
	c-3.1,0.4-5-1.8-5.4-6.7l-4.8,0.4l-1.5,13.8c-20.5,31.2-35.5,47.3-44.9,48C1460.1,260.5,1454.9,266.2,1452.5,266.4L1452.5,266.4z
	 M1474.2,343.2l-0.6-7l4.8-0.4l10.3,6.3c0.2,3-1.3,4.6-4.4,5C1479.9,344.4,1476.6,343.1,1474.2,343.2L1474.2,343.2z M614.7,791.7
	l-4.8,1.1l-4.1,3.5c0.7,3,2.6,4.1,5.7,3.3c3.1-0.7,4.4-2.6,3.7-5.5L614.7,791.7L614.7,791.7z M596.4,755.4l0.6,2.4
	c3.1-0.7,4.4-2.6,3.7-5.5l-0.6-2.4C597.1,750.6,595.8,752.4,596.4,755.4L596.4,755.4z M727.1,509.8l3.5-2.2c-0.7,0-1.3-0.2-1.9-0.4
	C727.5,507.6,726.9,508.5,727.1,509.8z M726.4,446.1l5.5-1.3l-1.1-4.8l-5.5,1.3L726.4,446.1z M2031.2,632.6l-12.6-1.5l-2.2,4.8
	l0.2,2.4l74.8-6.3l-0.4-4.6L2031.2,632.6z M2099.5,626.8l0.4,4.6h0.7l-0.4-4.6H2099.5z M2413.2,585.9l0.4,4.6l8.1,1.5l-0.4-4.6
	L2413.2,585.9z M2401.8,586.8c-56.1,12.6-63.1,10.3-75,11.3l0.4,4.6l5.2-0.4l2.8-0.2l-0.7-0.6l6.1-2.4c55.6-6.1,62-3.9,61.5-10.2
	L2401.8,586.8z M2064.8,505.2l-5-1.7c-4.1,10.9-6.1,17.4-5.9,19.2l0.2,2C2058,524.6,2061.5,517.9,2064.8,505.2z M1997.2,468.8
	l-0.2-2.4l-2.6,0.2l-4.6,3l2.6,4.4C1995.9,473.6,1997.6,471.9,1997.2,468.8L1997.2,468.8z M2144,620.6l-0.4-4.6l-1.5,0.2l0.4,4.6
	L2144,620.6L2144,620.6z M2448.7,551.9l3.5-0.4c2-0.2,3-1.8,2.8-4.8l-2-4.4c-12.7,1.1-18.6,1.7-29,7.4l-0.2-2.4l-15.3,1.5
	c-0.4-4.6-1.7-7-3.7-6.8l-7.9,0.7c-9.2,0.7-13.7,0.4-18.3,3.9c-0.2-1.7-0.7-2.4-1.7-2.4l-8.9,0.7l-5.2,3c-0.2-1.7-0.7-2.4-1.7-2.4
	l-3.1,2.8l-0.2-2.4l-12.4-0.9l-3,0.2l0.4,4.6l6.3,1.7l5.9-0.4c2,1.3,4.2,1.7,6.8,1.5l5.2-2.6l0.2,2c-29,7.2-28.8,5.9-48.7,9.2
	c-2.2-1.5-3.9-2.2-5-2l-0.4,0.4c-2.2-0.2-3.5-1.7-3.7-4.1l10.3-1.3c0.7,0,1.3,0.7,7,1.9c8.3-4.1,8.7-5.7,13.1-6.1l-0.4-4.6
	c-28.4,5.5-17,1.8-52.6,5l-1.7,0.2l-0.4-4.6c45.8-5.5,30.5-2.4,46.2-6.8c0.2,1.7,0.7,2.4,1.7,2.4c1.7-1.7,3.9-2.8,6.3-3.1l3.1-0.2
	c16.1-1.3,21.4,1.8,53.2-7l0.2,2l5.2-2.6l4.8-0.4c-0.4-4.6,6.7-5.4,9-5.5l-0.4-5c-55.8,11.3-70.4,8.1-85.9,12.6l-0.2-2
	c-14.6,2.6-15.1,1.5-18.8,1.7c-1.1,0.2-2.8,1.1-4.6,3c-0.2-1.7-0.7-2.4-1.8-2.4c-0.6,0-0.7,0.2-0.9,0.2l-47.3,7.8
	c-0.2-1.3-0.7-2-1.8-1.8c-24.6,5.2-17.9,6.1-50.8,9c-1.5,0.2-3.5,0.9-6.1,2.6c-0.2-1.3-0.9-2-2.6-1.8l-20.1,1.7l-13.5,3.3
	c-0.2-1.3-0.9-2-2.6-1.8c-7.6,2-14.2,3.3-19.6,3.7h-0.4c-3.3,0.4,1.7-0.9-0.9-2l-4.1,2.4c-5.9,0.6-2.8-0.4-23.1-0.2
	c-35.6,4.4-31.8,5-35.6,5.2l-13.3-0.9c0.2,1.3-0.6,2.2-2,2.2c-15.1-2-22.9-4.4-23.1-7.2c2-14.4,5.5-21.8,10.5-22.2l2.6-0.2l-2.2,4.8
	l2.6-0.2c4.8-2.6,7-5,6.8-7.2l-0.4-5l-4.8,0.4l-0.4-4.6c-0.4-3.5,0.2-6.6,1.5-9.2l10.9-17.5l0.4,4.6l5.2-0.4l-0.4-4.6l-3-4.2
	c3.9-3.3,6.8-5.2,9.2-5.4l-0.2-2.4l-7,0.6l-0.6-7c14-29.2,20.7-46.2,20.3-51l5,2c3.1-0.2,4.6-2,4.4-5.4l-4.8,0.4l-0.2-2
	c-0.3-3.4,0.3-6.8,1.8-9.8c7.6-7.9,11.1-15.9,10.3-24.2c1.5-0.2,2.2,0.6,2.4,2.2c6.5-3.7,11.5-13.5,15.1-29.7
	c11.4-20.7,27.7-62,48.9-123.9c40.6-109.3,39-120.9,44.7-146.8l-4.8,0.4c0.4,3.3-0.4,6.5-1.8,9.4c-3.3-1.3-5.9-2-7.8-1.8l-0.2-2
	c-0.7-9.4,3.1-20.7,12-34l2.2-0.2l4.1,15.9l4.8-0.4c-0.2-1.1,1.1-7.4,3.7-19c-0.2-2.4-2-3.9-5.7-4.1l-4.6,3
	c-0.4-3.3-0.2-12,0.4-25.8l-2.4,0.2c-4.1-4.1-6.1-7.4-6.3-10.2l-26.4,2.6c-0.2-1.8-1.1-4.6-3-8.1c-0.2-2.4,5.7-4.8,17.9-7.2l5.4,2
	l5-3c0.2,1.7,1.1,2.4,3,2.2l5-3c0.2,1.7,1.1,2.4,3,2.2l2.4-0.2l-0.4-5.4c-3.7,0.4-13.5,0.4-29-0.2l-5,3.3l-0.2-3
	c-123.9,10.2-194.2,15.9-211,17.5c-2.2,0.2-10.9,0-26.2-0.4c0.2,2-1.7,3.1-5.4,3.5l-5.4-2.4l-18.1,4.6c-4.2,0.4-11.5,0.2-21.4-0.9
	c-2.8,2.2-6.1,3.5-10.2,3.9c-2.2,0.2,26.4-1.5,53-3.3c-2.8,2.2-7,3.5-12.9,4.1c-4.1,0.4-7.6-0.2-10.5-1.8
	c-4.1,1.8-17.2,4.8-39.1,9.2l-5.4-2l-86.4,13.3c-3.3-1.7-7.2-2.2-11.6-1.8c-4.6,0.4-12.4,2-23.1,5l-41.7,17.4l3.1,5.2
	c2-0.2,5-1.3,8.5-3.3l14.8,1.3l-1.8,13.8c-13.7,6.1-21.6,15.1-23.8,26.6c-20.5,9-30.6,15.5-30.6,19.4l0.2,2.4l3.1-0.2l5.5-3l6.5,7.8
	l0.9,10.7c0.4,3.3-34.2,75.9-103.2,217.7c-59.8,136.6-91.2,211.4-94.2,224.9c-20.5,5.7-32.3,14-35.8,25.1c0.4,3.5,6.5,5.9,18.3,6.8
	l0.6,5.4l-5.4,8.9l0.9,10.7c0.6,5.5,15.5,9.8,44.9,12.7c-0.2-1.8,0.7-3,2.8-3.1c0.6,6.6-1.3,19.6-5.5,38.8l3.1-0.2
	c12.2-16.6,17.9-28.1,17.4-34.3l2.6-0.2c3-0.2,6.1,3.1,9.8,10.3c-3.7,1.5-16.6,30.8-38.8,88.3l3.1,5.2l3.1-0.2
	c27.1-68.7,44.1-106.7,51.1-113.9c35.6-3.1,97.3-9.4,184.8-18.8l5.5-3.3c0.2,1.9,1.3,2.8,3.3,2.6l5.7-0.6l5.5-3.3
	c0.2,1.8,1.3,2.8,3.3,2.6l66.3-5.7c17.5-1.5,25.8-6.8,25.1-15.9c-0.2-2.4,10.2-5.2,31-8.1c2-0.2,5,0.4,9,1.7
	c-0.2-1.7,10.3-3.3,31.4-5.2c0.6-11.1,4.1-17,10.3-17.5l-0.6-5.4c-5.9,0.6-12.6,2-20.3,4.6c-13.8-0.7-22.7-1.8-26.4-3.1
	c-3.7,2-6.5,3.1-8.5,3.3l-46.2,1.5l-5.5,3c-0.2-1.7-1.3-2.4-3.3-2.2l-2.6,0.2l-5.9,3c-0.2-1.7-5-3-14.6-4.2l-5.9,3.5l-11.4,0.9
	l-0.2-3c59.5-6.5,88.8-14.6,88.1-24.2c3.9-0.4,5.9,1.5,6.3,5.4l17.4-4.4l-0.6-5.4l-142.4,3.9c0.2,1.8-0.7,3-2.8,3.1l-17.4-1.5
	c-4.4,0.4-8.1,1.7-11.1,3.9l-6.5-2.4c-17.9,1.5-31.2,3.7-40.1,6.5c-12.2-0.9-25.7-0.7-40.6,0.6l-31.9,2.8l-14.8-1.7
	c-0.7-9.4,17.5-55.8,55.2-138.8c10.9-28.1,20.9-45.6,30.5-52.3c2-0.2,5,0.6,9,2.2l22.7-7.8l11.6,1.8c19.6-1.7,42.3-7.2,68.3-16.8
	c6.5-0.6,11.3-0.2,14.8,1.3l17.4-4.1l51.7-4.4c22-1.8,45.8-6.6,71.6-14.6l-0.6-5.4c-9.6,0.9-14.6-0.7-15-4.6c-0.6-7.2-7.6-10.2-21-9
	l-0.6-5.4l14.2-4.1l37.3-3.1l-0.6-5.4c-1.5,0.2-9,0-23.1-0.6l-0.6-5.7l14.4-1.3c3.9-0.4,5.5-2.2,5.2-5.9c-19.4,0.6-29.2-0.4-29.4-3
	c-135.2,6.6-202.9,7.9-203.3,3.7c-2,0.2-4.8,1.5-8.5,3.7l-3.5-5.5c35.8-76.1,56.9-114.5,63-115c0.2,3-1.3,7.8-4.4,14.2l0.2,2.4
	l5.7-0.6c14.2-34,26.2-51.5,36.2-52.3c42.5-3.7-5.9-6.5,84.9-20.7c3.7,1.7,6.3,2.4,8.1,2.2c35.6-7.2,85.3-14.8,149-22.5L2065,84
	l-34,3.1l-0.4-5.4c4.1-0.4,7.4-1.7,10.2-3.9l0.2,3c1.8-0.2,4.4-1.5,7.8-3.7c5.9-0.6,10.3,0,13.5,1.7c11.8-3.1,21.4-5,28.4-5.7
	l21.2-2c5.2-3.3,7.6-6.3,7.4-9l-0.2-2.4c-5.4,0.6-11.4,0.2-18.6-1.1c-0.2-3,1.3-5,4.8-5.9l39.5-3.7l18.1-4.6c0.2,2,1.1,2.8,2.6,2.8
	c1.8-0.2,4.4-1.5,7.8-3.7c0.9,0.2,2,0.2,3,0.4c-2.4,5-5.2,12.2-7.9,21.6l-5.2,0.4c-0.4-3.5-1.3-6.7-3-9.4l-2.6,0.2
	c-48,133.7-69.4,195.9-113.7,298.6c-8.1,26.2-15,40.8-20.9,43.9c0.2,3,2,4.4,5.2,4.1c1.1,12.9-1.8,25.7-9,38.2
	c-20.5,59.1-34.2,91.4-41.2,97.3l4.6,27.9c0.2,3-1.3,4.6-4.4,5l-4.8,0.4c-0.7-7.8-3.5-11.5-8.5-10.9l-2.6,0.2
	c-6.3,9.8-11.1,21-14.2,34.2l4.8-0.4c6.5-4.2,9.4-9.2,8.9-15l9.6-0.9l5.5,2c-4.4,7-6.5,12.6-6.1,16.8l2.6,4.4l-6.3,14.8l0.2,2.4
	c5.5-0.6,11.6,1.3,18.1,5.2c4.4-0.4,9.2-2.4,14.6-5.9c5.5-0.6,26.2-0.7,61.9-0.7l17.9-6.1c21.8-0.2,25.3,0.4,44.1-1.3l7.8-0.7
	l4.1-2.8l0.2,2.4c19.8-1.7,21.1-0.4,36.6,1.5l0.2,2.4l-10.9,0.9l0.4,4.6c3.3-0.4,6.3-1.3,8.7-3.3c2.8-0.2,4.4,1.3,4.6,4.6
	c-4.4,0.4-9.4,1.5-15,3.3l-4.8-1.7c-7.6,2-5.9,2.6-11.1,3l-7.6-1.5c0.2,1.3-0.6,2.2-1.8,2.2c0.2,3,1.8,4.4,4.6,4.2l7.8-0.7l40.4-3.5
	l15.3-3.3c0.2,1.3,0.7,2,2,1.8l7.4-2.8l13.8-1.1c10.7-0.9,10.5-1.7,33.8-5.4c-0.2-1.5,0.4-2,1.5-2.2l0.2,2
	c37.9-6.5,40.2-6.8,46.3-8.9l0.6,1.1c9.4-2.2,4.1-1.7,6.6-3.5c0.2,1.7,0.7,2.4,1.7,2.4l6.7-0.6l-0.4-5l-13.5-0.2l-0.2-0.4
	c-0.6,0.2-0.9,0.2-1.5,0.4h-1.8v0.4c-9,1.8-9.2,0.6-15.1,1.1l-33.8,1.8l-0.2-2.4l18.8-2.6l6.8-0.6l3.9-2.8l0.2,2.4
	c26.6-2.2,36,4.4,159-21.8c6.7-0.6,6.1-6.1,10.3-17.5c-2.3,0.2-4.5-0.4-6.5-1.5c-10.2,3.9-15.5,2-35.1,5.2c-1.7,0.2-3-1.3-3.5-4.2
	l-0.2-2l18.8,0.6c3.5-0.4,10.3-0.9,20.5-6.6C2450.3,551.1,2446.5,552.1,2448.7,551.9L2448.7,551.9L2448.7,551.9z M1539.5,566.5
	l-8.7,0.7c-0.4-3.5,4.2-16.8,13.8-39.5l5.7-0.6C1550.6,532.5,1547.1,545.6,1539.5,566.5z M1550,524.4l-0.2-2.4c-0.2-3,1.7-5,5.7-5.9
	l0.2,2.4C1555.9,522,1554.1,524,1550,524.4z M1665.4,613.5l0.2,2.4l-14.4,1.3l-0.2-2.4L1665.4,613.5z M1648.1,612.1
	c0.2,3-4.2,6.3-13.8,9.6l-17.7-1.3l-5.7,0.6l-0.6-5.4L1648.1,612.1z M1764.8,75l-8.7,0.7l-0.2-3c-0.2-3,1.5-5,5.2-5.9l3.1-0.2
	l5.9,2.4C1770.3,72.6,1768.6,74.6,1764.8,75z M1896.8,49.1l2.8-0.2l0.4,5.4L1892,55C1891.8,52.1,1893.3,50,1896.8,49.1L1896.8,49.1z
	 M1863.6,60.7l-13.1-1.5l-0.2-2.4c17.2-1.5,22.9-3.3,33.4-6.3c0.2,2,2,2.8,5.4,2.4l0.4,5.4l-5.2,0.6c-4.1,0.4-7.6-0.2-10.5-1.9
	C1870.6,59.1,1867.2,60.4,1863.6,60.7z M1880,108.6l-0.2-2.4l21.2-2l0.2,2.4L1880,108.6z M1902.7,90.1l-0.2-3l10.3-0.9l0.2,3
	L1902.7,90.1z M1905.1,53.9l-2.8,0.2l2.4-5.7l23.6-2.2l0.2,3C1922.5,49.7,1914.5,51.3,1905.1,53.9z M1917.1,104.9l-0.4-5.4l10.3-0.9
	c3.5-0.4,5.4,1.3,5.5,5L1917.1,104.9L1917.1,104.9z M1979.7,19.6l-13.3,3.7l-2.4,0.2c-6.3,0.6-14.4,0.4-24-0.6
	C1957.2,21.8,1973.6,20.5,1979.7,19.6L1979.7,19.6z M1965.5,78.7l0.2,2.4l-18.3,1.7l-0.2-2.4C1947.2,80.3,1965.5,78.7,1965.5,78.7z
	 M1995.4,92.9c-0.2-2.2-3.7-3.7-10.9-4.4l-18.3,5.2l-14,0.6c-3.1-2.2-4.8-3.7-5-4.8l16.3,0.9l36.6-5.9l18.6,0.7l0.2,3
	C2009.6,89,2001.8,90.7,1995.4,92.9L1995.4,92.9z M2183.5,44.3c2.2,0.2,3.7,0.2,4.2,0.2c6.5-6.3,13.7-11.3,22-14.8
	c-6.7,29.2-17,50.8-31.2,64.8l-10.3-6.3C2176.9,66.3,2182.1,51.7,2183.5,44.3z M2151.8,98.8l2.6-0.2c-3.5,6.6-6.6,10.2-9.2,10.3
	l-0.6-7C2146.2,101.9,2148.6,100.8,2151.8,98.8L2151.8,98.8z M2131.3,147.7c5-19.9,9.8-31.2,14.2-34.2l0.2,2.4
	c-2.6,18.5-6.6,28.3-12,29l0.9,11.6c-4.4,6.3-6.5,11.1-6.3,14.8l-2.6,0.2l-1.5-16.1C2127.2,155.1,2129.6,152.5,2131.3,147.7z
	 M2123.3,174.3c0.2,2.8-1.7,9.2-5.4,19.2l-2.6,0.2l-0.6-7C2118.4,178.5,2121.3,174.5,2123.3,174.3L2123.3,174.3L2123.3,174.3z
	 M1974.3,606.7l-0.2-2l4.8-0.4l0.6,7C1976.9,611.5,1975.1,610,1974.3,606.7L1974.3,606.7z M2187.2,612.3c-0.2-1.7-0.9-2.4-2.6-2.2
	l-12,1.1l-0.2-2.4h1.1l28.4-2.4l0.2,2.4C2193.9,609.1,2188.9,610.4,2187.2,612.3z M2173,606.4c1.1,0.6,0.6,1.1,0,1.5
	C2172.5,607.6,2171.7,607.1,2173,606.4z M2174.5,573.1l-15.9,1.3l-0.2-2.4l14.4-1.3l12.6-3.1c0.2,1.5,0.9,2,2.6,1.8
	c15-2.6,13.5-3.3,20.7-3.9c2.4-0.2,3.9,1.3,4.1,4.2L2174.5,573.1L2174.5,573.1z M2230.1,568.3c-8.9-0.9-9.4-1.7-15.7-1.1l-0.2-2
	l14.2-1.3l0.2,2C2227.1,566.1,2232.5,566.5,2230.1,568.3z M2231.2,565.7l-0.2-2l7.8-0.7l0.2,2L2231.2,565.7z M2248.3,564.3l-0.2-2
	c1.3-0.2,3.1-1.1,5.5-3c3.9-0.4,5.9,2.2,6.3,5.2L2248.3,564.3L2248.3,564.3z M2270.3,561.5l-0.2-2.4l9.4-0.7l0.2,2.4L2270.3,561.5z
	 M2283.4,560.4c-0.2-2.8,0.9-4.4,3.3-4.8l3.1,4.1c-0.2-1.3,0.4-2,1.5-2.2l2.4,4.4L2283.4,560.4L2283.4,560.4z M2465.1,539l0.2-0.2
	v-0.2C2465.3,538.6,2465.1,538.8,2465.1,539L2465.1,539z M2468.4,536.6c1.5-0.9,2.2-1.8-1.3-2.4c-1.7,1.8,1.8,2.4-1.8,2.6l0.2,1.7
	c0.4-0.4,1.3-0.9,2-1.5l-2,1.7v0.2l-3.9,5l7.8-2.8h0.9l-0.4-4.6L2468.4,536.6z M2481.9,547.1l-1.5,0.2l0.4,4.6l10.9-0.9
	C2491.5,548,2484.3,547.1,2481.9,547.1z"/>
</svg>
