<?xml version="1.0" encoding="utf-8"?>
<!-- Generator: Adobe Illustrator 22.1.0, SVG Export Plug-In . SVG Version: 6.00 Build 0)  -->
<svg version="1.1" id="Layer_1" xmlns="http://www.w3.org/2000/svg" xmlns:xlink="http://www.w3.org/1999/xlink" x="0px" y="0px"
	 viewBox="0 0 83 76.8" style="enable-background:new 0 0 83 76.8;" xml:space="preserve">
<style type="text/css">
	.st0{fill:none;stroke:#4F00E9;stroke-width:5;stroke-miterlimit:10;}
	.st1{fill:#4F00E9;}
</style>
<path class="st0" d="M26.9,50.6c-0.6-0.9-1.3-2.1-2-3.5c-0.5-1.1-1.9-4-2.8-8.2c-0.9-4.3-0.9-7.6-0.8-9.6c0-1.4,0.1-3.5,0.6-6.2
	c0.3-1.8,0.9-4.8,2.6-8.1c1-1.9,2.3-4.6,5.3-7.1c1.3-1.1,4.6-3.6,9.4-4.3c1.6-0.2,4.4-0.6,7.7,0.6c2.8,1,4.6,2.6,5.8,3.7
	c2.3,2.2,3.4,4.3,4.2,5.7c0.4,0.8,1.4,2.8,2.2,5.7c0.5,1.9,0.7,3.5,0.8,4.8"/>
<path class="st0" d="M55.4,52.1c-0.5,1-1.1,2.2-2,3.6c-0.6,1-2.5,3.8-5.6,6.8c-3.2,3.1-6.1,4.8-7.9,5.8c-1.3,0.7-3.1,1.8-5.6,2.8
	c-1.8,0.7-4.6,1.8-8.4,2.1c-2.2,0.2-5.2,0.5-8.9-0.7c-1.6-0.5-5.5-2-8.6-5.7c-1-1.2-2.8-3.4-3.5-6.8c-0.6-2.9-0.1-5.3,0.2-6.9
	c0.7-3,1.9-5.1,2.7-6.5c0.5-0.8,1.7-2.7,3.8-4.9c1.4-1.4,2.7-2.5,3.8-3.2"/>
<path class="st0" d="M41.9,29.4c1.1-0.1,2.4-0.1,4.1,0c1.2,0.1,4.5,0.3,8.6,1.5c4.2,1.3,7.2,3,8.9,4c1.3,0.7,3.1,1.8,5.2,3.5
	c1.5,1.2,3.8,3.1,6,6.2c1.2,1.8,3,4.3,3.8,8.1c0.4,1.7,1,5.8-0.8,10.3c-0.6,1.5-1.6,4.1-4.2,6.4c-2.2,2-4.6,2.7-6.1,3.2
	c-3,0.9-5.5,0.9-7.1,0.9c-0.9,0-3.2-0.1-6.1-0.9c-1.9-0.5-3.5-1.1-4.7-1.7"/>
<circle class="st1" cx="29.8" cy="54.6" r="5.7"/>
<circle class="st1" cx="37.1" cy="29.7" r="5.7"/>
<circle class="st1" cx="56.8" cy="47.6" r="5.7"/>
</svg>
