<svg version="1.1" id="Layer_1" viewBox="0 0 626 625" 
	 style="enable-background:new 0 0 626 625;">
<style type="text/css">
	.st0{fill:#EFECD3;}
</style>
<g>
	<path class="st0" d="M313.5,616.8c-25.2-98.6-48.8-164.6-94.2-210c-45.4-45.4-111.4-69-210-94.2c98.6-25.2,164.6-48.8,210-94.2
		s69-111.4,94.2-210c25.2,98.6,48.8,164.6,94.2,210c45.4,45.4,111.4,69,210,94.2c-98.6,25.2-164.6,48.8-210,94.2
		C362.3,452.1,338.7,518.2,313.5,616.8z"/>
	<path d="M313.5,10.3c25.1,97.6,48.7,163.2,93.9,208.4c45.2,45.2,110.7,68.8,208.4,93.9c-97.6,25.1-163.2,48.7-208.4,93.9
		c-45.2,45.2-68.8,110.7-93.9,208.4c-25.1-97.6-48.7-163.2-93.9-208.4c-45.2-45.2-110.7-68.8-208.4-93.9
		c97.6-25.1,163.2-48.7,208.4-93.9C264.8,173.4,288.4,107.9,313.5,10.3 M313.5,6.2C260.1,215.8,216.8,259.1,7.2,312.5
		c209.6,53.4,252.9,96.7,306.3,306.3c53.4-209.6,96.7-252.9,306.3-306.3C410.2,259.1,366.9,215.8,313.5,6.2L313.5,6.2z"/>
</g>
</svg>
